<svg width="110" height="39" viewBox="0 0 110 39" fill="none" xmlns="http://www.w3.org/2000/svg">
<path d="M33.8839 25.4627V25.488L33.4876 26.5313C33.4679 26.5532 33.4571 26.5812 33.4569 26.6103C33.3959 26.7278 33.3448 26.8499 33.3039 26.9754C33.2925 26.9845 33.2836 26.9962 33.278 27.0095C33.2724 27.0228 33.2702 27.0372 33.2718 27.0515C32.8999 27.7177 32.6183 28.3929 32.2005 29.0561L32.1821 29.0844C32.0474 29.2752 31.9143 29.4675 31.7811 29.6582L31.7597 29.6851L31.7429 29.7029L31.7276 29.7238C31.3686 30.1695 30.9578 30.5732 30.5032 30.9266V30.9266C30.45 30.9518 30.4026 30.9873 30.364 31.0309C30.362 31.0302 30.36 31.03 30.358 31.0301C30.356 31.0303 30.354 31.0309 30.3522 31.0319C30.3505 31.0329 30.349 31.0343 30.3478 31.0359C30.3467 31.0375 30.3459 31.0394 30.3456 31.0414L29.8865 31.3469L29.8559 31.3663C29.7894 31.394 29.7275 31.4312 29.6722 31.4766V31.4766L28.8427 31.9237C28.8324 31.9225 28.8219 31.9241 28.8125 31.9283C28.803 31.9325 28.795 31.9392 28.7891 31.9475C28.6697 31.9911 28.554 32.0439 28.4433 32.1055L28.4142 32.1145L28.3866 32.1309L28.3606 32.1383L27.8556 32.3395C27.7944 32.3649 27.7224 32.3514 27.6673 32.3962L27.2404 32.5452L27.1592 32.572L26.4093 32.803H26.3833L25.5783 33.0236H25.5293L24.7289 33.1727C24.6897 33.1659 24.6493 33.1722 24.6141 33.1906L24.5682 33.198H24.5116L23.7112 33.2979H23.6561C22.327 33.412 20.9888 33.3775 19.6678 33.195H19.6142C19.5826 33.175 19.5444 33.167 19.5071 33.1727H19.4535L18.673 32.9968H18.6424C18.6326 32.9871 18.6205 32.9799 18.6071 32.9758C18.5938 32.9716 18.5797 32.9707 18.5659 32.973H18.5399L18.0042 32.7971H17.9767L17.5788 32.6346C17.5783 32.6313 17.5771 32.6282 17.5752 32.6254C17.5733 32.6226 17.5708 32.6203 17.5678 32.6186C17.5649 32.6169 17.5616 32.6158 17.5582 32.6155C17.5548 32.6152 17.5514 32.6156 17.5482 32.6167L17.4686 32.5854L17.0645 32.3813L17.0431 32.3663L17.0156 32.3529L16.6942 32.1711C16.639 32.1186 16.5761 32.0744 16.5075 32.0399C15.6474 31.4065 15 30.469 15 29.3944V29.2156L15.0107 28.8504C15.0276 28.8025 15.0349 28.7519 15.0321 28.7014L15.0398 28.5523C15.0711 28.4126 15.0941 28.2713 15.1087 28.129V28.0784C15.1476 27.924 15.1752 27.7671 15.1913 27.6089C15.1887 27.5717 15.1984 27.5346 15.2189 27.5031L15.3887 26.8264C15.3969 26.8156 15.4027 26.8033 15.4059 26.7902C15.409 26.7772 15.4094 26.7636 15.4071 26.7504L15.427 26.6982V26.649C15.4353 26.6426 15.4415 26.634 15.4451 26.6242C15.4486 26.6145 15.4492 26.604 15.4469 26.5939V26.5641L15.8142 25.4209L15.8249 25.3732C15.9153 25.1587 15.9945 24.9398 16.0621 24.7174V24.7174C16.232 24.2569 16.408 23.7993 16.5702 23.3358C16.6012 23.2915 16.6202 23.2402 16.6253 23.1868C16.6343 23.1794 16.6413 23.1699 16.6455 23.1593C16.6498 23.1486 16.6513 23.137 16.6498 23.1257L16.6697 23.0824L16.6804 23.0526C19.1689 23.0422 21.6574 23.0526 24.1458 23.0526V23.1078C24.0916 23.2165 24.049 23.3304 24.0188 23.4476C24.0166 23.4506 24.0154 23.4543 24.0154 23.458C24.0154 23.4618 24.0166 23.4654 24.0188 23.4685C23.9876 23.5079 23.9699 23.5558 23.9683 23.6056V23.6056C23.8988 23.7577 23.8395 23.914 23.7908 24.0736L23.7785 24.1198C23.6971 24.3011 23.6276 24.4873 23.5704 24.6772V24.6772C23.5616 24.6826 23.5548 24.6905 23.551 24.6999C23.5471 24.7093 23.5464 24.7196 23.549 24.7294V24.7547C23.4112 25.0811 23.2964 25.4135 23.1786 25.7458V25.7712L23.1633 25.7965L23.1495 25.8472C23.0868 25.983 23.0356 26.1235 22.9965 26.2675C22.9768 26.2898 22.9669 26.3187 22.9689 26.348C22.8798 26.5493 22.8086 26.7577 22.7562 26.971V26.971L22.7378 27.0187L22.7271 27.0708C22.6303 27.3312 22.5685 27.6028 22.5435 27.8787V27.9308C22.5205 27.9955 22.5205 28.0658 22.5435 28.1305C22.5374 28.1442 22.5343 28.1589 22.5343 28.1738C22.5343 28.1886 22.5374 28.2033 22.5435 28.217C22.5741 28.6447 23.0898 28.7491 23.451 28.7356H23.5046C23.8129 28.7502 24.119 28.6778 24.3861 28.527C24.7947 28.3135 25.1312 27.9895 25.3549 27.594C25.5161 27.3565 25.6481 27.1014 25.7482 26.8339L25.7589 26.7966L25.7788 26.7578V26.6833C25.7926 26.6744 25.8155 26.6669 25.8201 26.655C25.8966 26.467 25.962 26.2749 26.016 26.0797V26.0797C26.0821 25.9201 26.1333 25.7549 26.1691 25.5864C26.1884 25.5543 26.1984 25.5177 26.1981 25.4805C26.2074 25.4703 26.2143 25.4581 26.2182 25.445C26.2222 25.4319 26.2232 25.4181 26.2211 25.4045V25.3762C26.2303 25.3628 26.2486 25.3524 26.2318 25.3345L26.2456 25.3032C26.3064 25.1083 26.351 24.9089 26.3787 24.707V24.631C26.3894 24.631 26.3787 24.6161 26.3787 24.6071C26.4005 24.5653 26.4075 24.5176 26.3986 24.4715C26.4259 24.3608 26.4342 24.2465 26.4231 24.1332V24.0557C26.4355 23.9775 26.4276 23.8976 26.4001 23.8232V23.768C26.403 23.7574 26.4028 23.7462 26.3996 23.7357C26.3963 23.7252 26.3902 23.7157 26.3818 23.7084C26.3818 23.6831 26.3818 23.6533 26.3588 23.6354C26.2901 23.4229 26.1631 23.2328 25.9915 23.0854L25.9716 23.066C25.9053 22.9764 25.8265 22.8961 25.7375 22.8276C25.4025 22.4928 25.0446 22.1806 24.6662 21.8931C24.5447 21.7764 24.4131 21.6702 24.2729 21.5756L24.2422 21.5518C23.9056 21.2656 23.5505 21.0033 23.1939 20.7425L23.1664 20.7201L23.1373 20.6992L23.1189 20.6828L23.0929 20.665C22.7623 20.3937 22.4256 20.1299 22.0752 19.8825L21.867 19.7141C21.867 19.7106 21.8663 19.7072 21.8649 19.704C21.8635 19.7008 21.8615 19.698 21.8589 19.6956C21.8563 19.6932 21.8532 19.6914 21.8499 19.6902C21.8466 19.689 21.843 19.6885 21.8395 19.6887C21.2395 19.1715 20.5937 18.6886 20.156 18.0224C20.0023 17.7395 19.8762 17.443 19.7795 17.1371C19.7827 17.1003 19.773 17.0635 19.752 17.0328C19.7564 17.0147 19.7565 16.9959 19.7523 16.9778C19.748 16.9597 19.7395 16.9428 19.7275 16.9284V16.8778L19.6433 16.4798C19.6012 15.9404 19.6258 15.3979 19.7168 14.8642V14.7912C19.7303 14.7755 19.7399 14.7569 19.7447 14.737C19.7495 14.717 19.7494 14.6963 19.7443 14.6764C19.7627 14.6168 19.7443 14.5512 19.778 14.4946L19.931 13.8686V13.8417L20.1468 13.1174C20.1785 13.0694 20.198 13.0147 20.2035 12.9579L20.5708 11.9936C20.56 11.931 20.632 11.8967 20.6289 11.8446L21.0222 10.9652L21.0375 10.9205C21.1121 10.8012 21.1741 10.6748 21.2227 10.5434L21.2411 10.5151C21.2431 10.5114 21.2441 10.5073 21.2441 10.5032C21.2441 10.499 21.2431 10.4949 21.2411 10.4913C21.3163 10.3761 21.3803 10.2543 21.4324 10.1276V10.1276L21.6834 9.69834V9.6894L22.0461 9.10962C22.0721 9.09621 22.0644 9.07236 22.0644 9.05C22.0644 9.02765 22.0996 9.03957 22.1104 9.02765L22.7378 8.24964C22.8198 8.18576 22.8938 8.11273 22.9582 8.03204V8.03204C22.9927 8.01411 23.0209 7.98661 23.0393 7.95305L23.2291 7.77568L23.601 7.4612L24.1351 7.06773L24.2882 6.96042L24.53 6.81137L24.559 6.792C24.6269 6.76672 24.6896 6.72988 24.7442 6.6832L24.8514 6.62507C24.9965 6.55825 25.1366 6.48155 25.2707 6.39554L25.3059 6.37021C25.4119 6.34647 25.5122 6.30294 25.6013 6.24203H25.6273L25.6579 6.22265C25.6613 6.22477 25.6653 6.2259 25.6694 6.2259C25.6734 6.2259 25.6774 6.22477 25.6808 6.22265L25.7298 6.2003L26.8011 5.78745C26.9384 5.75498 27.0725 5.7111 27.2021 5.65629C27.2401 5.65701 27.2774 5.64663 27.3092 5.62648C27.3266 5.62951 27.3445 5.62693 27.3603 5.61913C27.376 5.61132 27.3887 5.59873 27.3965 5.58326H27.4286C27.4385 5.58511 27.4487 5.58428 27.4582 5.58086C27.4676 5.57744 27.4759 5.57157 27.4822 5.56388V5.56388C27.6985 5.52126 27.9126 5.46804 28.1234 5.4044L28.177 5.39695L28.3652 5.35224L28.4203 5.34181L28.4494 5.32988C28.4526 5.33242 28.4567 5.33381 28.4609 5.33381C28.465 5.33381 28.4691 5.33242 28.4723 5.32988L29.3294 5.18084H29.409C29.4469 5.18817 29.4863 5.18125 29.5192 5.16146C29.629 5.15246 29.7379 5.13552 29.8451 5.11079C30.6961 5.0239 31.5516 4.98806 32.4071 5.00348C32.9075 5.02583 33.4064 5.07204 33.9069 5.1093H33.962L34.0385 5.1242L34.1472 5.13464C34.188 5.15562 34.2345 5.16394 34.2803 5.15848L34.4165 5.17935L35.2185 5.33883H35.269C35.2751 5.34707 35.2836 5.35332 35.2935 5.35678C35.3033 5.36024 35.3139 5.36073 35.3241 5.3582L35.3776 5.36714C35.5273 5.42058 35.6807 5.46341 35.8368 5.49532C35.8831 5.52369 35.9354 5.54152 35.9898 5.54749C35.9961 5.55557 36.0046 5.56179 36.0143 5.56548C36.0241 5.56916 36.0346 5.57015 36.0449 5.56835H36.0694L36.4994 5.74869C36.5101 5.77105 36.53 5.76956 36.5499 5.76956L36.931 5.94692L36.9387 5.95586H36.9509L36.9861 5.97375C37.0685 6.03027 37.1574 6.07728 37.2509 6.11385L37.381 6.18986C37.6674 6.3679 37.9377 6.56934 38.189 6.792C38.189 6.80094 38.189 6.8069 38.2028 6.8069C38.3445 6.9608 38.473 7.1258 38.5869 7.30024C38.6007 7.32259 38.6206 7.32408 38.642 7.32855L38.6803 7.40159L38.8563 7.79506V7.81891C38.8544 7.83278 38.8556 7.84689 38.8598 7.86027C38.864 7.87365 38.8712 7.88598 38.8808 7.89641V7.92324C39.0063 8.43893 38.9267 8.96654 38.867 9.48223C38.8364 9.52396 38.8532 9.57017 38.8486 9.61488C38.8379 9.61488 38.8486 9.62829 38.8486 9.63724C38.8285 9.67045 38.8215 9.70963 38.8287 9.74753C38.7665 10.0158 38.7043 10.2851 38.642 10.5553C38.6175 10.5777 38.5747 10.5866 38.59 10.6328V10.6582C38.5276 10.8373 38.4765 11.02 38.437 11.2052C38.4348 11.208 38.4337 11.2114 38.4337 11.2149C38.4337 11.2183 38.4348 11.2217 38.437 11.2245C38.4276 11.2312 38.4207 11.2405 38.4171 11.2512C38.4136 11.2619 38.4135 11.2735 38.4171 11.2842C38.4142 11.2872 38.4125 11.2912 38.4125 11.2953C38.4125 11.2995 38.4142 11.3035 38.4171 11.3065C38.3359 11.5211 38.264 11.7402 38.2043 11.9608C38.0712 12.3334 37.938 12.706 37.8034 13.0801C37.7923 13.0897 37.784 13.1018 37.7791 13.1154C37.7743 13.1289 37.7732 13.1435 37.7758 13.1576C37.7071 13.3012 37.6527 13.451 37.6136 13.6048C37.5849 13.6455 37.5676 13.6927 37.5631 13.7419C37.5525 13.7512 37.5444 13.7628 37.5394 13.7758C37.5343 13.7887 37.5325 13.8026 37.534 13.8164L37.5065 13.8283C35.0578 13.8179 32.5938 13.7955 30.1604 13.8283L30.1237 13.8358C30.0732 13.7911 30.113 13.7493 30.1237 13.7076L30.491 12.6896C30.5132 12.6603 30.525 12.6247 30.5246 12.5883C30.7649 11.9638 31.0312 11.3393 31.1659 10.6835L31.1781 10.6567L31.1919 10.5777C31.2242 10.4763 31.2407 10.3708 31.2409 10.2647V10.22C31.2508 10.1681 31.2493 10.1147 31.2367 10.0634C31.224 10.012 31.2004 9.96382 31.1674 9.92191C31.1674 9.91297 31.1674 9.907 31.1567 9.90402C31.1265 9.85192 31.0855 9.80657 31.0362 9.77088C30.9869 9.7352 30.9305 9.70998 30.8705 9.69685C30.8596 9.68635 30.8463 9.67847 30.8317 9.67381C30.8171 9.66916 30.8016 9.66786 30.7864 9.67003C30.7766 9.6603 30.7644 9.65315 30.751 9.64924C30.7377 9.64533 30.7235 9.64479 30.7098 9.64767L30.6042 9.63873C30.5973 9.63162 30.5884 9.62669 30.5786 9.62457C30.5687 9.62245 30.5585 9.62322 30.5491 9.6268H30.442C30.306 9.61597 30.1692 9.63168 30.0395 9.67301C29.9929 9.66771 29.9459 9.67824 29.9064 9.70281C29.6368 9.76961 29.3928 9.91092 29.2039 10.1097L29.1702 10.1395C29.1687 10.1391 29.1671 10.1389 29.1655 10.1392C29.164 10.1394 29.1625 10.14 29.1612 10.1408C29.1598 10.1417 29.1587 10.1428 29.1579 10.1441C29.1571 10.1454 29.1566 10.1469 29.1564 10.1485C29.0946 10.1895 29.0399 10.2398 28.9942 10.2975C28.9907 10.2975 28.9872 10.2982 28.9839 10.2996C28.9806 10.3009 28.9777 10.3029 28.9753 10.3054C28.9728 10.308 28.9709 10.3109 28.9697 10.3142C28.9685 10.3174 28.968 10.3209 28.9682 10.3243C28.9048 10.3858 28.8497 10.4549 28.8044 10.53V10.53C28.8009 10.5304 28.7974 10.5314 28.7943 10.5332C28.7911 10.5349 28.7884 10.5372 28.7863 10.54C28.7841 10.5428 28.7826 10.546 28.7817 10.5494C28.7809 10.5528 28.7808 10.5564 28.7815 10.5598L28.7264 10.6388C28.6643 10.7099 28.6127 10.7892 28.5734 10.8743L28.5642 10.8981C28.4589 11.0522 28.3751 11.219 28.3147 11.3945V11.3945C28.131 11.7852 27.9964 12.196 27.9137 12.6181C27.8739 12.6569 27.8877 12.706 27.8877 12.7508L27.8724 12.7984C27.856 12.8307 27.8501 12.8671 27.8556 12.9028C27.8247 13.0221 27.8098 13.1449 27.8112 13.2679V13.4483C27.8087 13.5469 27.8237 13.6452 27.8556 13.7389C27.8557 13.7844 27.8678 13.829 27.8908 13.8686C27.9315 13.9938 27.9958 14.1106 28.0806 14.2129L28.0989 14.2337L28.1402 14.2904C28.1923 14.3771 28.2591 14.4547 28.3377 14.5199V14.5199C28.3913 14.5952 28.4575 14.6612 28.5336 14.7151V14.7151C28.5917 14.7807 28.6586 14.8384 28.7325 14.8865L28.8167 14.9566C29.1002 15.1916 29.4026 15.4039 29.7212 15.5915L30.1803 15.903L30.2094 15.9209L30.2293 15.9373C30.2314 15.9413 30.2348 15.9446 30.2389 15.9467C30.243 15.9489 30.2476 15.9497 30.2522 15.9492C30.8246 16.3531 31.3909 16.7675 31.9357 17.1982C31.9991 17.2655 32.0711 17.3246 32.15 17.3741L32.228 17.4382C32.8172 17.9643 33.4202 18.4815 33.9115 19.0925C33.9131 19.0962 33.916 19.0992 33.9196 19.1011C33.9232 19.103 33.9273 19.1036 33.9314 19.103C34.0492 19.2833 34.1686 19.4637 34.288 19.644L34.3063 19.6753L34.5267 20.194C34.5262 20.2309 34.5368 20.2672 34.5573 20.2983C34.6155 20.5368 34.6537 20.7812 34.6889 21.0241L34.6981 21.2373V21.3863C34.6915 21.3941 34.6879 21.4038 34.6879 21.4139C34.6879 21.424 34.6915 21.4337 34.6981 21.4415L34.7073 21.5637C34.6959 21.5914 34.6959 21.6224 34.7073 21.6501C34.7073 21.6501 34.6981 21.665 34.7073 21.6725C34.679 22.1359 34.6223 22.5973 34.5374 23.0541V23.1286L34.3568 23.8888V23.9171C34.3477 23.929 34.3308 23.9409 34.3461 23.9588L34.3293 24.0199C34.2882 24.1109 34.2614 24.2074 34.2497 24.3061V24.3061L34.2405 24.3284L34.2191 24.4089C34.18 24.491 34.1542 24.5785 34.1426 24.6683C34.1318 24.6783 34.1237 24.6908 34.119 24.7045C34.1142 24.7182 34.1128 24.7329 34.115 24.7473C34.05 24.9079 33.9963 25.0728 33.9543 25.2406C33.9255 25.286 33.9068 25.3368 33.8992 25.3896C33.8875 25.3975 33.8793 25.4095 33.8764 25.4231C33.8736 25.4368 33.8763 25.4509 33.8839 25.4627V25.4627Z" fill="#302448"/>
<path d="M84.7553 16.292C84.7578 16.2885 84.7592 16.2844 84.7592 16.2801C84.7592 16.2758 84.7578 16.2717 84.7553 16.2682L84.7722 16.2414L84.7829 16.1892C84.913 15.8464 85.0323 15.4991 85.1318 15.1459C85.2849 14.7315 85.4287 14.3083 85.5573 13.882C85.6421 13.6777 85.7126 13.4681 85.7685 13.2545V13.2545C85.8461 13.0701 85.9096 12.8803 85.9582 12.6867C85.9685 12.6766 85.9764 12.6644 85.9812 12.651C85.9859 12.6376 85.9875 12.6233 85.9858 12.6092C86.0628 12.4245 86.1262 12.2347 86.1756 12.0413C86.1849 12.034 86.1919 12.0242 86.1957 12.0131C86.1995 12.002 86.1999 11.99 86.197 11.9787C86.2764 11.7937 86.3389 11.6021 86.3837 11.4064C86.4192 11.3567 86.4399 11.2984 86.4434 11.238C86.4508 11.2344 86.4567 11.2285 86.4601 11.2211C86.4634 11.2137 86.464 11.2055 86.4617 11.1977C86.4648 11.1901 86.4648 11.1815 86.4617 11.1739C86.5273 11.0212 86.5785 10.8631 86.6148 10.7014L86.6362 10.6507L86.6454 10.6045C86.9515 9.76989 87.2117 8.91587 87.4963 8.07079C87.5108 8.06129 87.5226 8.04839 87.5306 8.03329C87.5386 8.01818 87.5426 8.00135 87.5422 7.98435C87.5591 7.97242 87.5851 7.96199 87.5897 7.94559C87.6402 7.79655 87.6861 7.64751 87.732 7.49846C87.762 7.46036 87.7787 7.41385 87.7794 7.36582C87.7821 7.36264 87.7835 7.3587 87.7835 7.35464C87.7835 7.35057 87.7821 7.34663 87.7794 7.34346C87.8504 7.17226 87.9107 6.99707 87.96 6.81883V6.79051C87.9952 6.72493 88.0595 6.7458 88.1131 6.7458C88.866 6.7458 89.619 6.7458 90.372 6.7458C90.5005 6.7458 90.5434 6.76666 90.5434 6.90527C90.5332 8.53481 90.5271 10.1644 90.525 11.7939H90.5495C90.6842 11.3855 90.8184 10.9771 90.952 10.5688C90.9538 10.565 90.9547 10.561 90.9547 10.5568C90.9547 10.5527 90.9538 10.5486 90.952 10.5449C91.1051 10.1231 91.2504 9.69835 91.3805 9.26761C91.3891 9.26209 91.3958 9.25413 91.3996 9.2448C91.4035 9.23547 91.4043 9.22523 91.402 9.21544V9.18862C91.555 8.80259 91.6744 8.40912 91.7999 8.01564V7.99031C91.8708 7.82012 91.9311 7.64592 91.9805 7.46866L92.0172 7.34644C92.092 7.166 92.1538 6.98075 92.2024 6.792C92.2253 6.74878 92.2651 6.74281 92.3126 6.74281H94.7352C94.772 6.74281 94.8194 6.7294 94.8225 6.79051V6.81883C94.812 6.82843 94.8042 6.8404 94.7997 6.85366C94.7951 6.86692 94.794 6.88106 94.7964 6.89484C94.7768 6.9171 94.7669 6.94601 94.7689 6.97532C94.7136 7.10107 94.6696 7.23122 94.6373 7.36433L94.6051 7.46418C94.5788 7.50468 94.5625 7.55062 94.5577 7.59832V7.62366C94.4841 7.80184 94.4228 7.98457 94.3741 8.17065C94.3556 8.1929 94.3463 8.22107 94.348 8.24964C94.195 8.64461 94.068 9.04404 93.9455 9.44199C93.9434 9.4448 93.9423 9.44819 93.9423 9.45168C93.9423 9.45516 93.9434 9.45856 93.9455 9.46137C93.7925 9.87422 93.6517 10.296 93.5231 10.7178C93.5128 10.7281 93.5049 10.7406 93.5002 10.7543C93.4954 10.7679 93.4938 10.7825 93.4956 10.7968C93.4233 10.9756 93.3615 11.1582 93.3104 11.3438C93.3083 11.3474 93.3071 11.3515 93.3071 11.3557C93.3071 11.3599 93.3083 11.364 93.3104 11.3676C93.1711 11.7984 92.9768 12.2097 92.8513 12.6449C92.7549 12.8655 92.6906 13.0921 92.6171 13.3231L92.6064 13.3738C92.4687 13.7419 92.3386 14.119 92.233 14.4901C92.207 14.5035 92.2085 14.5274 92.21 14.5512C92.122 14.7562 92.0454 14.9657 91.9805 15.1787C91.9054 15.3633 91.8425 15.5525 91.7922 15.745C91.7796 15.7577 91.7703 15.7731 91.765 15.7899C91.7597 15.8067 91.7585 15.8246 91.7616 15.8419C91.688 16.0131 91.6276 16.1895 91.581 16.3695C91.578 16.3728 91.5763 16.3771 91.5763 16.3815C91.5763 16.3859 91.578 16.3901 91.581 16.3934L91.5657 16.4202L91.5535 16.4739C91.4832 16.6443 91.4229 16.8185 91.3729 16.9955C91.3637 17.0313 91.33 17.0596 91.3407 17.1013C91.299 17.1819 91.2706 17.2685 91.2566 17.3577V17.3577C91.2143 17.4418 91.1819 17.5303 91.1602 17.6215L91.1234 17.7482C91.0867 17.854 91.0423 17.9583 91.0117 18.0656C91.0096 18.0827 91.0038 18.0991 90.9947 18.1138C90.9857 18.1285 90.9735 18.1412 90.9591 18.1511C90.9446 18.1609 90.9282 18.1677 90.9109 18.1709C90.8936 18.1742 90.8758 18.1739 90.8587 18.17C90.0506 18.17 89.2441 18.17 88.436 18.17C88.3136 18.17 88.283 18.1431 88.283 18.0209C88.312 17.2966 88.3289 16.5722 88.3518 15.8479C88.3748 15.4306 88.3396 15.0117 88.3824 14.5959C88.4046 14.3885 88.4123 14.1798 88.4054 13.9714V13.797L88.4406 13.0712H88.413L88.1467 13.879L88.1376 13.9252L88.1207 13.955L88.11 14.0072C88.0447 14.1589 87.9934 14.316 87.957 14.4767C87.9256 14.5239 87.9077 14.5785 87.9049 14.6347C87.8973 14.6511 87.8896 14.6689 87.8835 14.6853L87.8728 14.7256L87.8575 14.7628V14.7912C87.7999 14.9161 87.7558 15.0464 87.7259 15.1802C87.7031 15.2086 87.6917 15.244 87.6937 15.28C87.5997 15.4847 87.5199 15.6953 87.455 15.9105C87.4513 15.9128 87.4484 15.9162 87.4468 15.9202C87.4451 15.9242 87.4448 15.9286 87.4458 15.9328C87.4374 15.9391 87.4313 15.9479 87.4282 15.9578C87.4252 15.9677 87.4255 15.9782 87.429 15.988V15.988C87.2009 16.6184 86.9913 17.2534 86.7893 17.8913C86.7675 17.933 86.7506 17.977 86.7388 18.0224C86.7204 18.1521 86.6469 18.1715 86.5214 18.1715C85.7271 18.1521 84.9237 18.1953 84.134 18.1551C84.1967 17.9643 84.2564 17.7795 84.3161 17.5962L84.3268 17.544C84.4094 17.3388 84.4804 17.1293 84.5395 16.9165C84.6223 16.7121 84.6943 16.5036 84.7553 16.292V16.292Z" fill="#302448"/>
<path d="M62.7493 8.03353V8.0067C62.8278 7.82145 62.8897 7.62997 62.9345 7.43438C62.9498 7.41053 62.9727 7.39115 62.9651 7.35986C62.9735 7.35347 62.98 7.34494 62.9838 7.33521C62.9875 7.32548 62.9885 7.31493 62.9865 7.30471C62.9888 7.30086 62.99 7.29649 62.99 7.29204C62.99 7.28759 62.9888 7.28322 62.9865 7.27937C63.0385 7.13033 63.0982 6.99023 63.1396 6.84118C63.164 6.75623 63.2038 6.73238 63.2926 6.73238C64.2109 6.73238 65.1368 6.73238 66.0581 6.73238C66.2616 6.73238 66.2616 6.73238 66.2004 6.91571C66.1897 6.9485 66.182 6.98129 66.1729 7.01557L66.1606 7.06475C66.0859 7.24302 66.0245 7.42633 65.977 7.61323C65.0449 10.2349 64.2078 12.8938 63.311 15.5319C63.2197 15.7574 63.168 15.9962 63.1579 16.2384C63.1579 16.4053 63.2299 16.4739 63.4028 16.4739C63.5127 16.4757 63.6204 16.444 63.7109 16.3834C63.8014 16.3227 63.8703 16.2361 63.9078 16.1355C64.0737 15.7675 64.2173 15.3902 64.3379 15.0058C65.0113 12.9356 65.7367 10.8818 66.43 8.82048L66.4468 8.78918L66.4575 8.74149C66.6106 8.34652 66.7376 7.94411 66.8616 7.5402C66.9411 7.31216 67.0238 7.09307 67.0972 6.8546C67.104 6.81569 67.1263 6.78097 67.1593 6.75806C67.1923 6.73515 67.2333 6.72591 67.2732 6.73238C68.2068 6.73238 69.1414 6.73238 70.077 6.73238C70.1826 6.73238 70.204 6.75027 70.1688 6.85162C70.0586 7.1661 69.9591 7.48356 69.8627 7.79953C69.8436 7.8221 69.8338 7.85079 69.8352 7.88002C69.7588 8.0658 69.6924 8.25535 69.6362 8.44787C69.601 8.46576 69.6163 8.49855 69.6133 8.52687C69.5383 8.70506 69.4769 8.88838 69.4296 9.07534C69.4169 9.08926 69.4072 9.10555 69.4011 9.12323C69.3951 9.14092 69.3928 9.15961 69.3944 9.17818C69.3131 9.38304 69.2431 9.592 69.1847 9.80417C69.176 9.80994 69.1693 9.81816 69.1654 9.82774C69.1616 9.83733 69.1609 9.84782 69.1633 9.85782V9.88316C69.1032 10.0165 69.0566 10.1553 69.0241 10.2975C68.9982 10.3375 68.9824 10.383 68.9781 10.4301C68.9684 10.4406 68.9611 10.4528 68.9566 10.4662C68.9522 10.4796 68.9506 10.4937 68.9521 10.5077C68.9499 10.5107 68.9487 10.5143 68.9487 10.5181C68.9487 10.5218 68.9499 10.5255 68.9521 10.5285C68.897 10.6479 68.8539 10.7722 68.8236 10.8996C68.8214 10.903 68.8202 10.9069 68.8202 10.9108C68.8202 10.9148 68.8214 10.9186 68.8236 10.922L68.8083 10.9503C68.7763 11.0164 68.7546 11.0867 68.744 11.159C68.6802 11.3112 68.629 11.4682 68.5909 11.6285C68.5685 11.6565 68.5571 11.6914 68.5588 11.7268C68.4778 11.9244 68.4088 12.1265 68.3522 12.3319C68.331 12.3628 68.3203 12.3992 68.3216 12.4363C68.2331 12.6475 68.1605 12.8647 68.1043 13.0861V13.0861C68.0859 13.0965 68.0767 13.1114 68.0905 13.1323L68.0798 13.1591C67.939 13.5213 67.8211 13.8909 67.7079 14.2621C67.7058 14.2649 67.7046 14.2683 67.7046 14.2717C67.7046 14.2752 67.7058 14.2786 67.7079 14.2814C67.6757 14.3008 67.6834 14.3351 67.6803 14.3634C67.6075 14.5341 67.5467 14.7094 67.4982 14.888C67.4961 14.8908 67.495 14.8942 67.495 14.8977C67.495 14.9012 67.4961 14.9046 67.4982 14.9074C67.3635 15.2562 67.2289 15.6064 67.0957 15.9507C67.0728 15.9597 67.0712 15.9805 67.0712 16.0014L67.0529 16.0297V16.0565L66.8906 16.3665C66.8816 16.3709 66.874 16.3777 66.8688 16.3862C66.8636 16.3946 66.8611 16.4044 66.8616 16.4142C66.482 16.9771 65.9786 17.4506 65.3878 17.8003L65.3602 17.8152L64.9853 18.0075C64.9654 18.0075 64.9439 18.0075 64.9347 18.0284L64.5674 18.167C64.5364 18.165 64.5058 18.1746 64.4817 18.1938C64.4674 18.1916 64.4527 18.1927 64.4388 18.1971C64.425 18.2015 64.4124 18.2091 64.4022 18.2192C63.5816 18.4341 62.7223 18.4692 61.8861 18.322V18.322C61.5963 18.2451 61.3149 18.1407 61.0459 18.0105C60.5455 17.7124 60.1675 17.2653 60.1154 16.681C60.0966 16.3918 60.125 16.1016 60.1996 15.821V15.821L60.2195 15.7704L60.2287 15.7197L60.2471 15.666L60.2562 15.6139C60.3343 15.4544 60.3389 15.2711 60.4353 15.1176C60.4562 15.0778 60.4677 15.034 60.469 14.9894L60.4812 14.964L60.495 14.9089L60.7062 14.2576C60.7081 14.2539 60.7091 14.2498 60.7091 14.2457C60.7091 14.2415 60.7081 14.2374 60.7062 14.2337C60.779 14.0549 60.8399 13.8717 60.8883 13.6853C60.91 13.6558 60.9213 13.6202 60.9204 13.5839C61.0934 13.1174 61.2449 12.6464 61.3979 12.174V12.1486C61.5173 11.8312 61.6275 11.5107 61.7193 11.1858C61.8044 10.9816 61.8749 10.7719 61.9305 10.5583C61.9328 10.5559 61.934 10.5527 61.934 10.5494C61.934 10.5461 61.9328 10.5429 61.9305 10.5404C61.9637 10.4927 61.9827 10.437 61.9856 10.3795L62.0025 10.3497V10.3228C62.0621 10.1889 62.1082 10.0496 62.1402 9.90701C62.2243 9.70247 62.2949 9.49288 62.3514 9.27953L62.4034 9.11261C62.4671 8.97309 62.5183 8.82848 62.5565 8.68038L62.6192 8.47172C62.6729 8.32876 62.7164 8.18235 62.7493 8.03353V8.03353Z" fill="#302448"/>
<path d="M52.8612 13.6614V13.7136C52.8516 13.7239 52.8444 13.7363 52.8405 13.7497C52.8365 13.7632 52.8357 13.7773 52.8383 13.7911V13.8179C52.8287 13.8283 52.8215 13.8407 52.8173 13.854C52.8131 13.8674 52.8119 13.8815 52.8138 13.8954V13.9193C52.6194 14.5288 52.422 15.1369 52.2261 15.745C52.2014 15.7841 52.1852 15.8278 52.1787 15.8732V15.903C52.1228 16.028 52.0787 16.1577 52.0471 16.2905C52.0449 16.2942 52.0438 16.2983 52.0438 16.3025C52.0438 16.3066 52.0449 16.3108 52.0471 16.3144C52.0363 16.3244 52.0282 16.3369 52.0234 16.3506C52.0186 16.3644 52.0173 16.379 52.0195 16.3934V16.3934C51.9453 16.5723 51.8839 16.7561 51.8359 16.9433C51.8257 16.9538 51.818 16.9663 51.8132 16.9799C51.8085 16.9935 51.8068 17.008 51.8083 17.0223C51.7304 17.2082 51.667 17.3995 51.6185 17.5947C51.6075 17.6035 51.5992 17.6151 51.5946 17.6283C51.59 17.6415 51.5893 17.6556 51.5925 17.6692C51.5838 17.6753 51.5771 17.6838 51.5733 17.6936C51.5695 17.7034 51.5688 17.7141 51.5711 17.7243V17.7497C51.5216 17.844 51.4851 17.9442 51.4624 18.0478C51.438 18.1372 51.3936 18.164 51.2972 18.164C50.4524 18.164 49.606 18.164 48.7612 18.164C48.5623 18.164 48.5623 18.164 48.6082 17.9837C48.6777 17.8126 48.7375 17.638 48.7873 17.4605L48.7964 17.4173C48.8034 17.4149 48.8092 17.4101 48.8126 17.4037C48.816 17.3973 48.8168 17.3899 48.8148 17.383V17.3562C48.8818 17.1708 48.9355 16.981 48.9755 16.7883C49.003 16.769 49 16.7406 49.0015 16.7138C49.0102 16.7073 49.0168 16.6985 49.0206 16.6885C49.0244 16.6785 49.0252 16.6676 49.0229 16.6572C49.0251 16.6536 49.0262 16.6494 49.0262 16.6453C49.0262 16.6411 49.0251 16.637 49.0229 16.6333L49.0382 16.605L49.0505 16.5528C49.1089 16.4273 49.1531 16.2958 49.1821 16.1609C49.202 16.1311 49.1821 16.0849 49.2158 16.0595C49.2877 15.8895 49.3471 15.7147 49.3933 15.5364C49.3962 15.5333 49.3978 15.5293 49.3978 15.5252C49.3978 15.521 49.3962 15.5171 49.3933 15.514C49.4021 15.5079 49.409 15.4995 49.4131 15.4897C49.4171 15.4799 49.4182 15.4692 49.4163 15.4589C49.4184 15.4552 49.4195 15.4511 49.4195 15.4469C49.4195 15.4428 49.4184 15.4386 49.4163 15.435L49.4316 15.4067L49.4423 15.3545C49.5252 15.2313 49.5815 15.0928 49.6076 14.9477C49.6325 14.9012 49.6485 14.8507 49.655 14.7986L49.6749 14.7494V14.7211C49.6857 14.7114 49.6937 14.6992 49.6983 14.6857C49.7028 14.6721 49.7037 14.6576 49.7009 14.6436L49.7223 14.5944L49.7331 14.5482C49.7739 14.4734 49.8008 14.3922 49.8126 14.3083C49.8444 14.2613 49.862 14.2065 49.8631 14.1503C49.9709 13.887 50.0354 13.6089 50.0544 13.3261C50.0713 13.1055 49.808 13.028 49.6229 13.028H49.5968H49.5877H49.5785C49.5405 13.0136 49.4993 13.0095 49.4591 13.0161C49.3474 12.9788 49.2892 13.0161 49.2801 13.1338V13.18C49.2374 13.2542 49.2099 13.3356 49.1989 13.42C49.165 13.4626 49.1467 13.5151 49.1469 13.569C49.0749 13.7512 49.0176 13.9386 48.9755 14.1294C48.9632 14.1425 48.954 14.1582 48.9487 14.1752C48.9435 14.1922 48.9421 14.2102 48.9449 14.2278C48.6311 15.0699 48.3756 15.9313 48.0863 16.7824C48.0603 16.7943 48.0649 16.8181 48.0664 16.839L48.045 16.8882L48.0343 16.9389C47.892 17.2861 47.7848 17.6453 47.67 18.0015C47.6318 18.1238 47.5828 18.1879 47.4481 18.17H47.3685C46.4671 18.1566 45.5642 18.17 44.6612 18.17C44.5709 18.17 44.5449 18.1566 44.5816 18.0641C44.6352 17.9285 44.6719 17.7854 44.7163 17.6468C44.7185 17.6435 44.7197 17.6396 44.7197 17.6356C44.7197 17.6317 44.7185 17.6278 44.7163 17.6245C44.7947 17.4398 44.8581 17.2494 44.9061 17.0551C44.929 17.0402 44.929 17.0179 44.9275 16.994C45.0159 16.7828 45.0901 16.5663 45.1494 16.3457C45.1582 16.3399 45.1649 16.3317 45.1687 16.3221C45.1726 16.3125 45.1733 16.302 45.1709 16.292V16.2667C45.3239 15.8807 45.4448 15.4872 45.5672 15.0937C45.5697 15.0902 45.5711 15.0861 45.5711 15.0818C45.5711 15.0775 45.5697 15.0734 45.5672 15.0699C45.6447 14.8837 45.7087 14.6925 45.7585 14.4975C45.783 14.4841 45.78 14.4618 45.7784 14.4409C45.8554 14.2552 45.9188 14.0645 45.9682 13.8701C45.9958 13.8522 45.9927 13.8224 45.9958 13.7955C46.0698 13.616 46.1312 13.4318 46.1794 13.2441V13.2441C46.19 13.2342 46.198 13.2221 46.2028 13.2086C46.2076 13.1951 46.209 13.1807 46.207 13.1666V13.1666C46.2691 13.0143 46.3203 12.8579 46.36 12.6986C46.3824 12.6694 46.3937 12.6336 46.3921 12.5972C46.4006 12.5908 46.407 12.5823 46.4108 12.5726C46.4146 12.5629 46.4155 12.5523 46.4136 12.5421C46.4157 12.5385 46.4168 12.5344 46.4168 12.5302C46.4168 12.526 46.4157 12.5219 46.4136 12.5182C46.489 12.3396 46.5509 12.1558 46.5987 11.9683C46.6088 11.9578 46.6165 11.9453 46.6212 11.9317C46.626 11.918 46.6277 11.9036 46.6263 11.8893C46.6366 11.8793 46.6442 11.867 46.6484 11.8535C46.6527 11.84 46.6535 11.8257 46.6508 11.8118C46.6529 11.809 46.654 11.8056 46.654 11.8021C46.654 11.7986 46.6529 11.7952 46.6508 11.7924C46.6661 11.7924 46.6737 11.776 46.6691 11.7611V11.7313C46.7164 11.6322 46.7518 11.5282 46.7747 11.4213C46.8161 11.3393 46.7992 11.2395 46.8589 11.1634C46.8712 11.1634 46.8803 11.1515 46.8742 11.1366L46.8865 11.083C46.9462 10.9481 46.9939 10.8085 47.0288 10.6656L47.0456 10.612L47.0655 10.5628L47.0778 10.5106C47.1543 10.334 47.2157 10.1516 47.2614 9.96513V9.96513C47.4925 9.32723 47.6961 8.68187 47.9073 8.03949C47.9379 8.01863 47.9287 7.98435 47.9363 7.95603L47.947 7.93516L48.3235 6.80989L48.3358 6.7607C48.3725 6.72791 48.4184 6.73685 48.4628 6.73685C49.9182 6.73685 51.3798 6.72195 52.8291 6.80989C52.9061 6.83159 52.9863 6.84016 53.0663 6.83522H53.0939C53.2948 6.8662 53.4921 6.91611 53.6831 6.98427L53.7122 6.99321C53.9668 7.11467 54.1815 7.30311 54.332 7.53722C54.3371 7.56897 54.3527 7.59825 54.3764 7.62068L54.4651 7.8517L54.4758 7.93069C54.5022 8.12833 54.5089 8.32798 54.4957 8.52686V8.65653L54.3672 9.28251V9.30785C54.2463 9.70282 54.1162 10.0948 53.9693 10.4808C53.9478 10.506 53.9354 10.5375 53.9341 10.5702C53.8055 10.8413 53.663 11.106 53.5071 11.3632V11.3632C53.3879 11.5162 53.253 11.657 53.1046 11.7835L52.7832 11.9653H52.771H52.7602C52.4506 12.0813 52.128 12.1613 51.7991 12.2038C52.0949 12.2807 52.3732 12.4111 52.6194 12.5883L52.6654 12.636L52.7863 12.8208C52.7863 12.8417 52.7863 12.861 52.8107 12.873C52.8184 12.926 52.8377 12.9769 52.8674 13.022V13.0488C52.9201 13.2501 52.918 13.4612 52.8612 13.6614ZM49.9703 11.2245C50.6727 11.2245 50.8518 11.0919 51.0706 10.5911C51.2313 10.2245 51.3415 9.8459 51.467 9.46435C51.542 9.22737 51.64 8.86817 51.3232 8.76384C51.192 8.72265 51.0554 8.70055 50.9176 8.69827C50.903 8.69454 50.8877 8.69392 50.8728 8.69646C50.8578 8.699 50.8437 8.70463 50.8312 8.71296C50.8187 8.7213 50.8082 8.73216 50.8004 8.7448C50.7926 8.75743 50.7877 8.77155 50.786 8.7862C50.5166 9.60296 50.2427 10.3988 49.9703 11.2245Z" fill="#302448"/>
<path d="M78.4928 18.1729H78.4561C77.4689 18.1506 76.4788 18.1729 75.4916 18.164C75.4136 18.164 75.4105 18.1402 75.4365 18.085L75.4702 18.0045C75.5433 17.8803 75.6053 17.7501 75.6554 17.6155V17.6155C75.7243 17.4665 75.7947 17.3174 75.8651 17.1758V17.152C76.1007 16.687 76.3242 16.216 76.5308 15.742L76.5522 15.6958L76.7496 15.3277C76.8234 15.2028 76.8854 15.0716 76.9348 14.9357C76.9455 14.9274 76.9538 14.9167 76.9592 14.9044C76.9645 14.8922 76.9667 14.8789 76.9654 14.8657C77.0216 14.7827 77.0654 14.6923 77.0955 14.5974V14.5974C77.2118 14.3768 77.319 14.1503 77.4154 13.9207C77.4262 13.9117 77.4348 13.9005 77.4406 13.8879C77.4464 13.8753 77.4493 13.8615 77.449 13.8477C77.4765 13.8184 77.4937 13.7813 77.498 13.7419C77.5552 13.6524 77.6004 13.5563 77.6327 13.4557V13.4557C77.642 13.4504 77.6493 13.4423 77.6537 13.4327C77.6581 13.4231 77.6593 13.4124 77.6572 13.4021V13.4021C77.721 13.2952 77.7724 13.1817 77.8102 13.0637L77.8424 12.9952C77.9139 12.876 77.9743 12.7508 78.023 12.6211V12.5495C78.0627 12.5495 78.0704 12.5182 78.0826 12.4899L79.0835 10.3541L79.1172 10.2751C79.1769 10.1544 79.2351 10.0322 79.2947 9.91147C79.307 9.87868 79.3208 9.84589 79.3345 9.8131C79.4983 9.50458 79.6406 9.18712 79.7829 8.86966C79.8108 8.83068 79.83 8.78654 79.8396 8.73999C79.8971 8.65071 79.9423 8.55451 79.9742 8.45383V8.45383C80.0398 8.34631 80.0937 8.23242 80.1349 8.11401C80.1763 8.0842 80.1564 8.02756 80.19 7.99328C80.2375 7.92721 80.2727 7.85357 80.2941 7.77568V7.77568C80.3296 7.73147 80.3556 7.68079 80.3706 7.62664C80.4961 7.36432 80.6247 7.10201 80.7456 6.83671C80.7549 6.80553 80.7756 6.77875 80.8038 6.76145C80.832 6.74414 80.8657 6.73751 80.8986 6.74281C82.3112 6.74281 83.7253 6.74281 85.1394 6.74281C85.1808 6.74281 85.2435 6.71449 85.2527 6.792L85.242 6.83969L85.2297 6.89483L85.1241 7.46865V7.51933C85.0973 7.59489 85.0808 7.67357 85.0752 7.75332L85.0675 7.82636C85.0017 8.09463 84.9604 8.36738 84.9145 8.64013C84.8886 8.71501 84.8762 8.79366 84.8777 8.87264C84.8548 8.88605 84.8578 8.90692 84.8624 8.9263L84.8532 9.0038C84.7844 9.27059 84.7476 9.54185 84.7002 9.8131C84.6767 9.88692 84.6654 9.96388 84.6665 10.0411L84.6543 10.0709C84.6543 10.1067 84.6451 10.141 84.642 10.1753C84.5733 10.4601 84.5197 10.7481 84.4814 11.0382C84.4589 11.0772 84.4503 11.1222 84.4569 11.1664V11.1947H84.4492V11.2022L84.4293 11.2633C84.4105 11.3227 84.4007 11.3845 84.4002 11.4466V11.472C84.3414 11.7127 84.297 11.9565 84.2671 12.2023C84.2282 12.3016 84.2095 12.4074 84.212 12.5138C84.1324 12.8312 84.0834 13.1561 84.0299 13.4781L84.0222 13.5511L84.013 13.5794L84.0023 13.6346L83.9763 13.7657V13.8164C83.9151 14.04 83.8875 14.2635 83.8462 14.4946C83.8191 14.5696 83.8076 14.6491 83.8126 14.7286C83.7328 15.0636 83.6705 15.4024 83.6258 15.7435V15.7435C83.6168 15.7545 83.6103 15.7672 83.6068 15.7809C83.6034 15.7945 83.6031 15.8088 83.606 15.8225L83.5983 15.9C83.5111 16.2801 83.4453 16.6616 83.3871 17.0477C83.3846 17.0512 83.3833 17.0553 83.3833 17.0596C83.3833 17.0639 83.3846 17.068 83.3871 17.0715C83.3075 17.389 83.2616 17.7139 83.205 18.0373L83.1958 18.1238C83.1667 18.1893 83.1055 18.167 83.0565 18.167C82.0811 18.167 81.1068 18.167 80.1334 18.167C80.0936 18.167 80.0431 18.1908 80.0125 18.1416L80.0232 18.091C80.0884 17.8959 80.1395 17.6967 80.1763 17.4948C80.1776 17.4935 80.1787 17.492 80.1794 17.4904C80.1801 17.4887 80.1805 17.4869 80.1805 17.4851C80.1805 17.4833 80.1801 17.4815 80.1794 17.4798C80.1787 17.4782 80.1776 17.4767 80.1763 17.4754L80.1931 17.4426L80.2038 17.3711C80.2762 17.1463 80.3365 16.9179 80.3844 16.687V16.6587C80.3934 16.6482 80.4001 16.6361 80.4041 16.623C80.408 16.6099 80.4092 16.5962 80.4074 16.5827V16.5543C80.4166 16.5443 80.4235 16.5325 80.4274 16.5196C80.4314 16.5067 80.4324 16.4931 80.4303 16.4798V16.45C80.4598 16.3738 80.4833 16.2956 80.5007 16.216C80.5329 16.1355 80.5007 16.1191 80.4211 16.1206C80.1946 16.1206 79.9697 16.1206 79.7432 16.1206C79.4233 16.1206 79.408 16.1311 79.3131 16.4187C79.2912 16.4467 79.2784 16.4804 79.2764 16.5156L79.258 16.5499V16.5752C79.1961 16.6923 79.1449 16.8145 79.105 16.9404V16.9657C79.096 16.971 79.0888 16.9788 79.0844 16.9881C79.08 16.9974 79.0787 17.0078 79.0805 17.0179V17.0179C78.9274 17.3666 78.7744 17.7139 78.6412 18.0612C78.6359 18.0948 78.6176 18.1251 78.5899 18.1459C78.5623 18.1667 78.5275 18.1764 78.4928 18.1729V18.1729ZM82.2944 9.38833C81.4986 10.8892 80.8389 12.4258 80.1625 13.9774C80.1273 14.0608 80.1212 14.0951 80.236 14.0921C80.4992 14.0852 80.7624 14.0852 81.0257 14.0921C81.1205 14.0921 81.1542 14.0638 81.1787 13.9759C81.5154 12.4303 81.8934 10.922 82.2944 9.38833Z" fill="#302448"/>
<path d="M66.0091 20.6679H37.2141C37.0259 20.6679 37.0381 20.7007 37.0381 20.4921C37.0381 20.2402 37.0381 19.9883 37.0381 19.7364C37.0381 19.6574 37.0626 19.6276 37.1453 19.6321C56.3552 19.638 75.5656 19.638 94.7765 19.6321C95 19.6321 95 19.6321 95 19.8542C95 20.0762 95 20.3236 95 20.5576C95 20.6441 94.9739 20.6724 94.8852 20.6664C85.2608 20.6645 75.6355 20.665 66.0091 20.6679Z" fill="#C72027"/>
<path d="M75.8498 14.7286C75.8375 14.7718 75.8069 14.809 75.8177 14.8582C75.8092 14.8653 75.8029 14.8744 75.7994 14.8846C75.7959 14.8948 75.7954 14.9058 75.7978 14.9164V14.9491L75.6049 15.4842V15.5095L75.4182 15.979C75.3555 16.1087 75.2927 16.2384 75.2315 16.3695C75.1504 16.5081 75.0708 16.6467 74.9912 16.7868C74.7892 17.0713 74.5423 17.3228 74.2597 17.5321C74.2554 17.5312 74.251 17.5319 74.2473 17.5341C74.2435 17.5363 74.2409 17.5399 74.2398 17.544L74.2168 17.5619L74.1862 17.5842L74.1633 17.5961C73.9135 17.7463 73.6549 17.8822 73.3889 18.003L72.8777 18.1849L72.8226 18.1953L72.7935 18.2087L72.6634 18.24L71.8263 18.3891C71.1648 18.4493 70.4976 18.3989 69.8536 18.24C69.8352 18.2147 69.8046 18.2162 69.777 18.2132L69.3179 18.0045C68.6262 17.5574 68.4211 16.9881 68.5619 16.216V16.1385C68.5726 16.1385 68.5619 16.1251 68.5619 16.1161C68.5827 16.0832 68.5903 16.0439 68.5833 16.0059C68.6071 15.9668 68.6163 15.921 68.6093 15.8762V15.8762C68.7272 15.4201 68.868 14.9715 69.0088 14.5229C69.011 14.5198 69.0122 14.5162 69.0122 14.5124C69.0122 14.5087 69.011 14.5051 69.0088 14.502C69.0643 14.3834 69.1074 14.2595 69.1373 14.1324C69.145 14.0668 69.1955 14.0802 69.2383 14.0802H72.0252V14.1175C72.0167 14.1254 72.0102 14.1352 72.0065 14.1462C72.0028 14.1571 72.0018 14.1687 72.0038 14.1801C71.9783 14.2205 71.9616 14.2657 71.9548 14.3127V14.3381C71.8832 14.5162 71.8244 14.699 71.7788 14.8851C71.7773 14.8886 71.7765 14.8924 71.7765 14.8962C71.7765 14.9001 71.7773 14.9039 71.7788 14.9074C71.7651 14.9074 71.7559 14.9208 71.762 14.9372L71.7513 14.9834C71.6003 15.3469 71.488 15.7244 71.4161 16.1102C71.4008 16.2324 71.3962 16.3561 71.5401 16.4187C71.5488 16.4288 71.5599 16.4367 71.5724 16.4416C71.585 16.4465 71.5986 16.4484 71.612 16.447C71.6605 16.4666 71.7126 16.4767 71.7651 16.4767C71.8176 16.4767 71.8696 16.4666 71.9181 16.447L71.9702 16.4381C72.3543 16.3442 72.5487 15.9462 72.6619 15.6094C72.6644 15.6059 72.6657 15.6017 72.6657 15.5975C72.6657 15.5932 72.6644 15.5891 72.6619 15.5856C72.6702 15.5794 72.6766 15.5711 72.6804 15.5617C72.6842 15.5522 72.6852 15.5419 72.6833 15.5319V15.5051L72.694 15.4827L72.7093 15.4276C72.8117 15.1688 72.8736 14.8965 72.893 14.6198V14.5423C72.9081 14.4724 72.8995 14.3997 72.8685 14.3351C72.8637 14.2738 72.8366 14.2162 72.792 14.1726C72.5843 13.9189 72.3487 13.688 72.0895 13.484L72.0666 13.4632C72.0041 13.3942 71.9326 13.3336 71.8538 13.2828L71.8339 13.2664L71.7987 13.2381C71.3626 12.8476 70.8728 12.5108 70.5178 12.0383L70.504 12.0145L70.4856 11.9876L70.4734 11.9578C70.4229 11.8297 70.3724 11.7015 70.3203 11.5718V11.545C70.323 11.5311 70.3225 11.5168 70.3188 11.5031C70.3151 11.4895 70.3083 11.4768 70.2989 11.466C70.2607 11.1985 70.2607 10.9272 70.2989 10.6597C70.3195 10.6288 70.3277 10.5917 70.3219 10.5553L70.3295 10.4778C70.3785 10.2871 70.429 10.0963 70.4826 9.90402C70.4826 9.8608 70.4826 9.81758 70.4902 9.77435C70.5053 9.76686 70.5185 9.75634 70.5291 9.74349C70.5396 9.73065 70.5472 9.71577 70.5514 9.69983C70.5974 9.55824 70.6479 9.41963 70.7045 9.27953V9.25121C70.8575 8.91735 71.0014 8.58201 71.1835 8.26305L71.1942 8.2407C71.2432 8.17661 71.3197 8.13637 71.3473 8.05439L71.3809 8.00819C71.6233 7.70533 71.9124 7.44087 72.238 7.22422V7.22422L72.5946 7.02003L72.6665 6.98724L73.1562 6.792C73.159 6.79431 73.1625 6.79557 73.1662 6.79557C73.1698 6.79557 73.1734 6.79431 73.1761 6.792L73.5251 6.68767L73.848 6.61314C73.8615 6.61619 73.8755 6.61657 73.8892 6.61426C73.9028 6.61196 73.9159 6.60702 73.9276 6.59973C74.574 6.4999 75.2321 6.49387 75.8804 6.58185H75.9355C75.9665 6.60207 76.0041 6.61056 76.0411 6.60569H76.064L76.7573 6.81733C76.9772 6.92717 77.1827 7.06227 77.3695 7.21975C77.3701 7.22263 77.3714 7.22534 77.3733 7.22766C77.3751 7.22999 77.3775 7.23187 77.3802 7.23316C77.772 7.61919 77.7169 8.1781 77.6144 8.66696V8.71913L77.596 8.7698L77.5884 8.82197L77.5654 8.90096V8.95014C77.5042 9.1603 77.4414 9.36896 77.3802 9.57762L77.3588 9.62978L77.3481 9.68046C77.2857 9.82559 77.2346 9.97505 77.195 10.1276C77.1926 10.1314 77.1913 10.1358 77.1913 10.1403C77.1913 10.1447 77.1926 10.1491 77.195 10.1529C77.1873 10.1772 77.1708 10.198 77.1486 10.2114C77.1264 10.2248 77.0999 10.23 77.0741 10.226C76.9548 10.226 76.8339 10.226 76.7145 10.226H74.5336C74.4949 10.2222 74.456 10.2222 74.4173 10.226C74.3117 10.2364 74.2643 10.214 74.3209 10.1022C74.3445 10.0434 74.3624 9.98251 74.3745 9.92042V9.92042C74.402 9.89955 74.4005 9.87123 74.4005 9.84142C74.4142 9.8295 74.428 9.81758 74.4158 9.79671L74.425 9.77137C74.4894 9.61678 74.5406 9.45725 74.578 9.29443C74.5805 9.2915 74.5819 9.28781 74.5819 9.284C74.5819 9.28019 74.5805 9.27651 74.578 9.27357C74.5863 9.26677 74.5925 9.25791 74.596 9.24794C74.5995 9.23796 74.6002 9.22724 74.5979 9.21693V9.1901C74.6532 9.06625 74.6868 8.93426 74.6974 8.79961C74.7219 8.60883 74.6576 8.46724 74.4464 8.46128C73.8771 8.43445 73.6138 9.05746 73.5006 9.50459C73.4983 9.50763 73.4971 9.51128 73.4971 9.51502C73.4971 9.51876 73.4983 9.52241 73.5006 9.52545C73.4924 9.53231 73.4864 9.54124 73.4832 9.55124C73.4799 9.56124 73.4796 9.57192 73.4822 9.58209L73.4746 9.63425L73.4623 9.66108L73.447 9.76392C73.4072 9.91424 73.4125 10.0725 73.4623 10.22C73.4602 10.2236 73.459 10.2277 73.459 10.2319C73.459 10.2361 73.4602 10.2402 73.4623 10.2438L73.4807 10.2766C73.4789 10.2796 73.478 10.2829 73.478 10.2863C73.478 10.2897 73.4789 10.2931 73.4807 10.296C73.4807 10.3124 73.4807 10.3213 73.5021 10.3258C73.6322 10.5941 73.9107 10.7729 74.148 10.9503C74.1633 10.9831 74.1985 10.9861 74.2275 11.001L74.7953 11.4481C75.1891 11.769 75.538 12.1388 75.833 12.5481L75.888 12.6479L76.0258 13.0637V13.0906C76.0204 13.1349 76.0278 13.1798 76.0472 13.2202C76.0516 13.4466 76.0429 13.673 76.0212 13.8984C75.9952 14.037 75.9692 14.1756 75.9447 14.3157V14.341L75.8498 14.7286Z" fill="#302448"/>
<path d="M41.2178 8.26752L41.2407 8.21685C41.3177 8.03066 41.3812 7.83941 41.4305 7.64452V7.64452C41.4559 7.59901 41.465 7.54659 41.4565 7.49548C41.5193 7.48803 41.5116 7.43139 41.5254 7.39562C41.5866 7.21975 41.6463 7.04388 41.6983 6.86503C41.7005 6.84421 41.7071 6.82406 41.7177 6.80589C41.7283 6.78772 41.7428 6.77193 41.7601 6.75956C41.7775 6.74719 41.7973 6.73851 41.8182 6.73408C41.8392 6.72965 41.861 6.72958 41.882 6.73387C43.5144 6.73387 45.1469 6.73387 46.7794 6.73387C46.8375 6.73387 46.8635 6.74132 46.8375 6.80541C46.8129 6.87435 46.7919 6.9445 46.7748 7.01556C46.7725 7.0186 46.7713 7.02225 46.7713 7.02599C46.7713 7.02974 46.7725 7.03338 46.7748 7.03643C46.7564 7.04835 46.7457 7.06325 46.761 7.08412C46.6079 7.46269 46.487 7.84871 46.3707 8.23771C46.2927 8.46128 46.2085 8.68484 46.1381 8.90841C46.1357 8.92669 46.1295 8.94431 46.12 8.96024C46.1105 8.97617 46.0978 8.9901 46.0827 9.0012C46.0676 9.0123 46.0504 9.02036 46.032 9.0249C46.0137 9.02944 45.9946 9.03037 45.9759 9.02764C45.3637 9.02764 44.7668 9.02764 44.1623 9.02764C44.1164 9.02764 44.0414 8.98591 44.0246 9.07683V9.10515L44.0032 9.15433L43.994 9.20053C43.9847 9.20698 43.9776 9.21592 43.9736 9.22625C43.9695 9.23658 43.9686 9.24785 43.971 9.25866C43.968 9.2618 43.9657 9.26558 43.9643 9.26972C43.963 9.27385 43.9627 9.27823 43.9634 9.28251L43.8287 9.673C43.7966 9.69238 43.8119 9.72517 43.8088 9.75199C43.7998 9.75756 43.7927 9.7657 43.7886 9.7753C43.7845 9.7849 43.7836 9.79549 43.7858 9.80565V9.83099C43.7773 9.83696 43.7706 9.84515 43.7665 9.85463C43.7625 9.86411 43.7612 9.8745 43.7629 9.88464C43.7606 9.88821 43.7593 9.89235 43.7593 9.89657C43.7593 9.90079 43.7606 9.90492 43.7629 9.90849C43.7353 9.92936 43.7369 9.95916 43.7369 9.98897C43.7265 9.99896 43.7186 10.0111 43.7138 10.0246C43.709 10.038 43.7075 10.0524 43.7093 10.0665C43.6658 10.159 43.6315 10.2553 43.6068 10.3541V10.3824C43.5964 10.3917 43.5885 10.4034 43.584 10.4165C43.5794 10.4295 43.5783 10.4434 43.5808 10.457C43.5624 10.4793 43.5531 10.5074 43.5547 10.536C43.5027 10.685 43.4507 10.834 43.4017 10.9831L43.391 11.0353C43.3825 11.0409 43.376 11.0489 43.3722 11.0582C43.3684 11.0675 43.3675 11.0776 43.3696 11.0874C43.3677 11.0914 43.3667 11.0957 43.3667 11.1001C43.3667 11.1045 43.3677 11.1088 43.3696 11.1128C43.29 11.226 43.3833 11.2096 43.4491 11.2096C44.0108 11.2096 44.5725 11.2096 45.1326 11.2096C45.2397 11.2096 45.252 11.235 45.2153 11.3244C45.1841 11.4094 45.1575 11.496 45.1357 11.5837C45.124 11.5931 45.1152 11.6054 45.1103 11.6194C45.1055 11.6334 45.1047 11.6484 45.1081 11.6627C45.0784 11.7075 45.0606 11.7587 45.0561 11.8118C45.0537 11.8145 45.0524 11.8179 45.0524 11.8215C45.0524 11.825 45.0537 11.8284 45.0561 11.8311C45.0008 11.9508 44.9582 12.0757 44.9291 12.2038C44.9269 12.2071 44.9257 12.211 44.9257 12.2149C44.9257 12.2189 44.9269 12.2228 44.9291 12.2261L44.9138 12.2544L44.9015 12.3066C44.8342 12.4668 44.7774 12.6311 44.7316 12.7984L44.7179 12.8551L44.6949 12.9058V12.9341C44.6521 13.0548 44.6016 13.174 44.5664 13.2977C44.5645 13.3104 44.5601 13.3225 44.5534 13.3335C44.5466 13.3445 44.5378 13.354 44.5272 13.3617C44.5167 13.3693 44.5047 13.3748 44.492 13.3779C44.4793 13.381 44.4661 13.3816 44.4531 13.3797H42.8722C42.7788 13.3961 42.5936 13.3231 42.5661 13.4363C42.4758 13.721 42.3824 14.0042 42.2906 14.2874V14.3112C42.1131 14.8299 41.934 15.3545 41.7504 15.8762H43.6879C43.7449 15.8806 43.8023 15.8806 43.8593 15.8762C43.9909 15.8583 43.9894 15.912 43.9542 16.0103C43.8904 16.1687 43.8392 16.3316 43.8011 16.4977C43.7998 16.4988 43.7988 16.5002 43.7981 16.5017C43.7974 16.5033 43.797 16.5049 43.797 16.5066C43.797 16.5083 43.7974 16.51 43.7981 16.5115C43.7988 16.5131 43.7998 16.5145 43.8011 16.5156C43.7699 16.5554 43.7527 16.6041 43.7522 16.6542C43.7302 16.6837 43.7179 16.7191 43.717 16.7555C43.6848 16.8435 43.6542 16.9314 43.6236 17.0193C43.593 17.1073 43.5792 17.1684 43.5563 17.2384C43.4599 17.5157 43.3619 17.7914 43.2701 18.0686C43.2471 18.1402 43.2135 18.1789 43.1339 18.1685H43.0818C41.3861 18.1595 39.6909 18.1595 37.9962 18.1685C37.9335 18.1685 37.8968 18.158 37.9304 18.082C37.956 18.0149 37.9769 17.9462 37.9932 17.8763C38.0498 17.8227 37.9932 17.7273 38.0559 17.6826C38.1354 17.491 38.2028 17.2949 38.2579 17.0954V17.067C38.2875 17.0221 38.3058 16.9711 38.3115 16.918C38.3328 16.8881 38.3451 16.853 38.3467 16.8166C38.3902 16.7242 38.4226 16.6272 38.4431 16.5275C38.4655 16.4977 38.4773 16.4616 38.4768 16.4247L38.5503 16.2145C38.5524 16.2109 38.5535 16.2068 38.5535 16.2026C38.5535 16.1984 38.5524 16.1943 38.5503 16.1907C38.561 16.1773 38.5763 16.1653 38.564 16.146L38.5747 16.1191C38.6676 15.9599 38.7371 15.7888 38.7813 15.6109C38.9711 15.0396 39.1604 14.4682 39.3491 13.8969C39.352 13.8897 39.352 13.8817 39.3491 13.8745C39.3582 13.8687 39.3651 13.8602 39.3689 13.8503C39.3728 13.8404 39.3733 13.8296 39.3706 13.8194V13.7926C39.4542 13.5884 39.5248 13.3793 39.5818 13.1666C39.5841 13.163 39.5853 13.1589 39.5853 13.1547C39.5853 13.1504 39.5841 13.1463 39.5818 13.1427C39.6609 12.9478 39.7288 12.7488 39.7853 12.5466V12.5212C39.9292 12.1471 40.0531 11.7671 40.1694 11.3825H40.1587H40.1694L40.1817 11.3482C40.1838 11.3446 40.185 11.3405 40.185 11.3363C40.185 11.3321 40.1838 11.328 40.1817 11.3244C40.3347 10.913 40.474 10.4927 40.6056 10.0709V10.0456C40.6332 10.0262 40.6316 9.99792 40.6316 9.96811C40.697 9.81589 40.7482 9.65826 40.7847 9.49713V9.49713C40.8754 9.2918 40.9531 9.08126 41.0173 8.86668C41.0195 8.86364 41.0207 8.85999 41.0207 8.85624C41.0207 8.8525 41.0195 8.84885 41.0173 8.84581C41.1011 8.65905 41.1682 8.46556 41.2178 8.26752V8.26752Z" fill="#302448"/>
<path d="M54.1361 14.7807C54.1382 14.7771 54.1394 14.773 54.1394 14.7688C54.1394 14.7646 54.1382 14.7605 54.1361 14.7569C54.2306 14.5177 54.3123 14.2739 54.381 14.0266C54.4561 13.8486 54.517 13.6652 54.5631 13.4781V13.4781C54.6442 13.2916 54.7102 13.0993 54.7605 12.9028C54.7881 12.8834 54.785 12.8551 54.785 12.8283C54.811 12.8148 54.808 12.7925 54.8064 12.7701L54.8263 12.7239V12.6911C54.8753 12.5317 54.9794 12.393 55.0115 12.2276V12.1292C55.0224 12.128 55.0327 12.1236 55.0411 12.1167C55.0496 12.1099 55.0558 12.1007 55.0589 12.0905C55.1125 11.9191 55.1676 11.7477 55.2212 11.5763L55.2487 11.4943C55.3328 11.2832 55.4048 11.0678 55.4645 10.849C55.5338 10.6777 55.5941 10.5031 55.6451 10.3258C55.6564 10.2315 55.6779 10.1385 55.7094 10.0486C55.7415 10.0486 55.7507 10.0262 55.7599 9.99941C55.8012 9.86378 55.8456 9.72964 55.8884 9.597V9.57017C55.9692 9.39419 56.0372 9.2129 56.092 9.02765C56.0942 9.02461 56.0954 9.02096 56.0954 9.01722C56.0954 9.01347 56.0942 9.00982 56.092 9.00678C56.3598 8.30032 56.5756 7.5715 56.8205 6.85609C56.8279 6.81977 56.8489 6.78744 56.8795 6.7654C56.91 6.74336 56.9479 6.73318 56.9857 6.73685C58.6294 6.73685 60.2731 6.74431 61.9168 6.73685C62.0576 6.73685 62.0545 6.77561 62.0147 6.87845C61.9612 7.02749 61.9214 7.1661 61.8755 7.30918L61.8433 7.415L61.6903 7.86213V7.89194C61.6805 7.90131 61.6732 7.91284 61.6689 7.92555C61.6646 7.93826 61.6636 7.95178 61.6658 7.96497C61.6447 7.99477 61.6335 8.03014 61.6337 8.06632C61.5158 8.34652 61.4332 8.63865 61.3383 8.9263C61.3358 8.94346 61.3299 8.95998 61.3209 8.9749C61.3119 8.98983 61.2999 9.00286 61.2857 9.01325C61.2715 9.02365 61.2553 9.03119 61.238 9.03545C61.2208 9.03971 61.2028 9.04061 61.1852 9.03808C60.5838 9.03808 59.9808 9.03808 59.3793 9.03808C59.159 9.03808 59.159 9.03808 59.0962 9.24525C59.0954 9.25418 59.0954 9.26315 59.0962 9.27208C59.0946 9.27507 59.0938 9.27839 59.0938 9.28177C59.0938 9.28514 59.0946 9.28847 59.0962 9.29146C59.0654 9.33032 59.0488 9.37801 59.0488 9.42709C58.9921 9.59103 58.937 9.75647 58.8804 9.92042C58.8452 9.93831 58.8605 9.97109 58.8575 9.99941C58.7829 10.1779 58.7211 10.3612 58.6723 10.5479V10.5479L58.6524 10.5956L58.6417 10.6433L58.6172 10.6671L58.6065 10.7178C58.5621 10.84 58.5238 10.9637 58.4733 11.0815C58.4228 11.1992 58.4565 11.2096 58.5682 11.2096C59.1115 11.2096 59.6533 11.2096 60.1966 11.2096C60.2884 11.2096 60.3022 11.226 60.2716 11.3095C60.2211 11.4422 60.1828 11.5793 60.14 11.7149C60.1382 11.7186 60.1373 11.7227 60.1373 11.7268C60.1373 11.7309 60.1382 11.735 60.14 11.7387C60.0572 11.9438 59.9867 12.1533 59.9288 12.3662V12.3662L59.6135 13.2769C59.5982 13.3216 59.6013 13.3842 59.5263 13.3842H57.8214C57.6392 13.3201 57.6515 13.6271 57.5918 13.7449C57.5814 13.7548 57.5735 13.767 57.569 13.7805C57.5645 13.794 57.5634 13.8084 57.5658 13.8224C57.5169 13.9219 57.4814 14.0271 57.4602 14.1354V14.1354C57.4265 14.2308 57.3928 14.3261 57.3576 14.4215V14.4677L57.3408 14.4975L57.3301 14.5467C57.1771 14.9417 57.0485 15.3426 56.9276 15.7391C56.8955 15.7584 56.9046 15.7912 56.9 15.8196C56.8283 15.9903 56.7684 16.1656 56.721 16.3442V16.3695C56.6417 16.5549 56.5782 16.7463 56.5312 16.9419C56.5221 16.9481 56.5151 16.9567 56.511 16.9668C56.5069 16.9769 56.506 16.9879 56.5083 16.9985C56.4256 17.2012 56.3552 17.4113 56.2986 17.6215V17.6453C56.2496 17.7839 56.193 17.9196 56.1455 18.0597C56.1211 18.1491 56.0767 18.17 55.9925 18.17C55.0345 18.17 54.0764 18.17 53.1199 18.17C53.0908 18.17 53.0571 18.1849 53.0327 18.1521L53.1367 17.8063C53.1389 17.8027 53.14 17.7986 53.14 17.7944C53.14 17.7902 53.1389 17.7861 53.1367 17.7825C53.2173 17.5876 53.2868 17.3886 53.3449 17.1863V17.1609C53.3555 17.1509 53.3633 17.1384 53.3676 17.1245C53.3719 17.1107 53.3725 17.0961 53.3693 17.082V17.082C53.4439 16.9045 53.5057 16.7222 53.5545 16.5365C53.557 16.5335 53.5584 16.5298 53.5584 16.526C53.5584 16.5222 53.557 16.5185 53.5545 16.5156C53.7627 15.9343 53.9494 15.3575 54.1361 14.7807Z" fill="#302448"/>
<path d="M65.045 31.0682C63.8207 31.0682 62.5825 31.0682 61.3521 31.0682C61.175 31.081 60.9972 31.0562 60.831 30.9955C60.6648 30.9347 60.5141 30.8395 60.3894 30.7164C60.2252 30.5501 60.1355 30.3271 60.14 30.0964C60.14 29.4451 60.14 28.7938 60.14 28.1425C60.14 26.3018 60.14 24.4626 60.14 22.6279C60.134 22.4919 60.1561 22.3562 60.2047 22.2287C60.2534 22.1012 60.3278 21.9844 60.4234 21.8853C60.5191 21.7861 60.6342 21.7066 60.7618 21.6514C60.8895 21.5962 61.0272 21.5663 61.1669 21.5637C63.7625 21.5637 66.3576 21.5637 68.9522 21.5637C69.2109 21.5619 69.4602 21.6581 69.6475 21.8319C69.8348 22.0056 69.9454 22.2435 69.9561 22.4952C69.9714 24.9991 69.9561 27.5046 69.9561 30.0085C69.9668 30.1491 69.9465 30.2903 69.8968 30.4227C69.847 30.5551 69.7688 30.6757 69.6675 30.7764C69.5661 30.8771 69.4439 30.9555 69.3089 31.0066C69.174 31.0577 69.0294 31.0802 68.8848 31.0726L65.045 31.0682ZM65.0634 30.5197C66.405 30.5197 67.7472 30.5197 69.0899 30.5197C69.295 30.5197 69.396 30.4243 69.396 30.232C69.396 27.6238 69.396 25.015 69.396 22.4058C69.396 22.2001 69.2981 22.1077 69.0823 22.1077H61.0659C60.7996 22.1077 60.7185 22.1882 60.7185 22.4505V30.1709C60.7185 30.4482 60.795 30.5227 61.0843 30.5227L65.0634 30.5197Z" fill="#73B53F"/>
<path d="M83.8096 30.5659L83.7943 30.5942L83.5739 30.8491C83.5631 30.8496 83.5528 30.8532 83.5443 30.8596C83.5358 30.866 83.5296 30.8749 83.5264 30.8849V30.8849C83.4866 30.8849 83.4683 30.9132 83.4468 30.937L83.4193 30.946L83.2249 31.0384H83.2142H83.2035C80.6018 31.1159 78.0001 31.0384 75.3983 31.0682C75.1191 31.0898 74.8387 31.0432 74.5826 30.9326V30.9326C74.1985 30.6643 74.0959 30.2932 74.099 29.849C74.1097 27.6685 74.099 25.4895 74.099 23.3105C74.099 22.9349 74.0592 22.5563 74.1526 22.1837C74.2031 22.1614 74.2046 22.1062 74.2276 22.066C74.3522 21.871 74.5325 21.7156 74.7464 21.6188L74.7892 21.6114C74.8464 21.6135 74.9028 21.5989 74.9515 21.5697C77.6435 21.5547 80.337 21.5697 83.029 21.5697C83.0978 21.5991 83.1714 21.6162 83.2464 21.6203V21.6203C83.4586 21.7126 83.6426 21.8569 83.7805 22.0391V22.0391C83.8659 22.2146 83.9133 22.4054 83.9197 22.5995C83.9197 24.9594 83.9197 27.3192 83.9197 29.6791C83.9447 29.9644 83.9162 30.2518 83.8356 30.5272V30.5272L83.8096 30.5659ZM83.3642 29.9429C83.3642 29.457 83.3642 28.9711 83.3642 28.4838C83.3744 26.5224 83.3744 24.56 83.3642 22.5966C83.3749 22.2821 83.1851 22.1062 82.8377 22.1062H75.3601C75.1443 22.1062 74.8872 22.0928 74.7571 22.2955C74.6892 22.3985 74.6595 22.521 74.6729 22.6428C74.6729 25.0945 74.6729 27.5463 74.6729 29.998C74.6664 30.0686 74.6758 30.1397 74.7005 30.2063C74.7253 30.273 74.7647 30.3335 74.8161 30.3837C74.8674 30.4338 74.9295 30.4724 74.9978 30.4967C75.0662 30.521 75.1391 30.5303 75.2116 30.5242C77.8011 30.5108 80.3936 30.5242 82.9831 30.5152C83.0584 30.5092 83.1303 30.4819 83.1898 30.4366C83.2494 30.3913 83.294 30.3301 83.3183 30.2604C83.3994 30.165 83.3627 30.0517 83.3642 29.9429V29.9429Z" fill="#EC8032"/>
<path d="M65.0449 24.8113C64.9317 25.3881 64.8047 25.9083 64.748 26.4836C64.748 26.5358 64.7327 26.5566 64.6654 26.5373C64.1466 26.3763 63.7471 26.0901 63.5359 25.5819C63.0386 24.1257 64.1389 23.5728 64.9868 22.6368C65.0296 22.5891 65.0587 22.5787 65.1016 22.6368C65.3819 22.9508 65.6835 23.246 66.0045 23.5206C66.932 24.2658 66.9809 25.7429 65.8408 26.3778C65.7078 26.4459 65.569 26.5028 65.426 26.5477C65.3755 26.5671 65.3327 26.57 65.3296 26.4925C65.3005 25.9128 65.1322 25.3792 65.0449 24.8113Z" fill="#73B53F"/>
<path d="M66.9351 27.9562C66.4162 28.1946 65.9036 28.3601 65.4169 28.6328C65.3511 28.6745 65.3143 28.6581 65.2929 28.5881C65.1016 27.9919 65.2485 27.1439 65.8791 26.7519C66.7545 26.0663 67.786 26.5447 68.7685 26.6371C68.8404 26.6371 68.894 26.6535 68.8649 26.7534C68.5588 27.8757 68.7226 29.0457 67.3728 29.5181C66.8004 29.7417 66.2448 29.5509 65.7566 29.229C65.6862 29.1872 65.6617 29.15 65.7566 29.0889C66.1989 28.7908 66.5295 28.3645 66.9198 28.0068C66.9213 28.0024 66.9228 27.9889 66.9351 27.9562Z" fill="#73B53F"/>
<path d="M63.1947 27.9785C63.5555 28.3709 63.9398 28.7422 64.3455 29.0904C64.4404 29.1664 64.4113 29.1947 64.3455 29.2498C64.0461 29.4853 63.6729 29.6137 63.288 29.6137C62.9032 29.6137 62.5299 29.4853 62.2305 29.2498C61.4224 28.6537 61.5296 27.6283 61.2725 26.7802C61.2495 26.7012 61.2541 26.6595 61.3627 26.649C62.4646 26.5373 63.6216 25.9903 64.4833 26.974C64.9118 27.4479 64.9868 28.0053 64.8138 28.6045C64.7894 28.6909 64.7588 28.6775 64.6975 28.6418C64.2094 28.3941 63.7077 28.1727 63.1947 27.9785V27.9785Z" fill="#73B53F"/>
<path d="M82.9356 25.1035L82.9448 25.1497V27.8593L82.9356 27.907C82.9228 27.911 82.9113 27.9182 82.9022 27.9279C82.8931 27.9375 82.8867 27.9493 82.8836 27.9621C82.6892 28.0471 82.4689 27.9934 82.2638 28.0083C82.1704 28.0083 82.0557 27.983 81.9883 28.0262C81.921 28.0694 81.9638 28.1931 81.9592 28.2811C81.9546 28.369 81.924 28.3765 81.8536 28.3765C81.1129 28.3765 80.3722 28.3765 79.633 28.3765C79.3912 28.3765 79.633 28.0605 79.4968 27.9785C79.3606 27.8965 79.0683 28.0724 78.9688 27.8429C78.3719 26.7027 77.7643 25.5655 77.1598 24.4268C77.1431 24.3896 77.1161 24.3576 77.0818 24.3344C77.0818 24.6668 77.0818 24.9798 77.0818 25.3062C77.0818 25.3837 77.1032 25.4209 77.1858 25.4105C77.2685 25.4001 77.2807 25.4224 77.2715 25.488C77.2624 25.5536 77.2899 25.6057 77.2042 25.5998C77.0894 25.5908 77.0726 25.6624 77.0603 25.7488C77.0205 26.0365 76.9762 26.3241 76.9394 26.6118C76.9396 26.675 76.916 26.7361 76.8732 26.7836C76.8304 26.831 76.7712 26.8616 76.7068 26.8696C76.6138 26.8935 76.533 26.9498 76.4797 27.0278C76.4264 27.1058 76.4043 27.2001 76.4176 27.2929C76.4375 27.3704 76.4635 27.442 76.563 27.3481C76.6005 27.3133 76.6504 27.2938 76.7022 27.2938C76.7541 27.2938 76.8039 27.3133 76.8415 27.3481C77.0068 27.4718 77.0037 27.284 76.9762 27.1647C76.9685 27.132 76.9471 27.0977 77.0022 27.0843C77.0114 27.0803 77.0214 27.0782 77.0315 27.078C77.0416 27.0778 77.0516 27.0796 77.061 27.0832C77.0704 27.0868 77.0789 27.0921 77.0862 27.099C77.0934 27.1058 77.0992 27.114 77.1032 27.123C77.1348 27.1755 77.1539 27.2342 77.1589 27.2949C77.1639 27.3555 77.1548 27.4165 77.1323 27.4733C77.1238 27.4851 77.1179 27.4985 77.115 27.5126C77.1122 27.5268 77.1124 27.5414 77.1158 27.5554C77.1191 27.5695 77.1254 27.5827 77.1343 27.5942C77.1432 27.6057 77.1545 27.6153 77.1675 27.6223C77.4169 27.8295 77.6618 28.0426 77.9097 28.2528C77.9648 28.3005 78.0138 28.3616 78.1026 28.3526C78.1393 28.3526 78.1531 28.3824 78.1515 28.4152C78.199 28.7133 78.1745 28.7372 77.8699 28.7372C77.6404 28.7372 77.645 28.7371 77.6388 28.9548C77.6388 29.0546 77.6633 29.1038 77.7705 29.0859C77.8107 29.0837 77.8511 29.0837 77.8914 29.0859C78.1622 29.0859 78.1974 29.1262 78.1515 29.3929C78.1393 29.4734 78.0842 29.46 78.0337 29.46C77.1858 29.46 76.338 29.46 75.4917 29.4675C75.3631 29.4675 75.331 29.4213 75.3478 29.3035C75.3478 29.0472 75.331 29.077 75.5789 29.0874C75.6937 29.0874 75.7472 29.0755 75.7319 28.9533C75.7074 28.8817 75.7794 28.7193 75.6493 28.7372C75.3937 28.7372 75.3432 28.7565 75.3432 28.4897C75.3432 28.3943 75.3585 28.3407 75.4733 28.3511C75.4956 28.3527 75.5178 28.3485 75.538 28.3391C75.5581 28.3297 75.5754 28.3153 75.5881 28.2975C75.8054 28.0769 76.0212 27.8503 76.24 27.6357C76.2646 27.6159 76.2811 27.5882 76.2864 27.5575C76.2917 27.5269 76.2856 27.4954 76.2691 27.4688C76.1467 27.1707 76.2615 26.8055 76.6027 26.7236C76.6685 26.7102 76.6793 26.6699 76.6747 26.6207C76.6441 26.3048 76.6104 25.9903 76.5798 25.6758C76.5706 25.5819 76.4987 25.6221 76.4482 25.6117C76.3977 25.6013 76.3273 25.6445 76.2951 25.564C76.263 25.4835 76.2951 25.415 76.4068 25.4254C76.54 25.4388 76.5675 25.3926 76.5599 25.2689C76.5522 24.6876 76.5599 24.1049 76.5599 23.5236C76.5652 23.4766 76.5573 23.429 76.5371 23.386C76.5169 23.343 76.4851 23.306 76.4451 23.2792C76.4221 23.2677 76.4021 23.2513 76.3865 23.2312C76.371 23.2111 76.3604 23.1877 76.3555 23.163C76.3507 23.1383 76.3517 23.1128 76.3584 23.0885C76.3652 23.0642 76.3776 23.0418 76.3946 23.0228C76.4388 22.9291 76.4954 22.8414 76.563 22.762C76.6698 22.6792 76.806 22.641 76.9417 22.6558C77.0774 22.6706 77.2015 22.7372 77.2868 22.841C78.2857 24.2201 79.2851 25.5988 80.2849 26.9769C80.3017 27.0106 80.3287 27.0384 80.3624 27.0565C80.396 27.0745 80.4346 27.082 80.4728 27.0777C80.511 27.0734 80.5468 27.0577 80.5754 27.0327C80.604 27.0077 80.6239 26.9747 80.6324 26.9382C80.6411 26.897 80.6337 26.8541 80.6116 26.818C80.5895 26.7819 80.5543 26.7551 80.513 26.7429C80.4441 26.7146 80.438 26.6714 80.4395 26.6103C80.4395 26.1289 80.4395 25.6475 80.4395 25.1661C80.4395 25.093 80.4472 25.0558 80.539 25.0558C81.3042 25.0558 82.0694 25.0558 82.8346 25.0632C82.8628 25.0872 82.8983 25.1013 82.9356 25.1035ZM75.8222 28.3198H77.7919C77.5378 28.0963 77.3006 27.8906 77.0665 27.6804C77.0499 27.6607 77.0271 27.647 77.0016 27.6413C76.9761 27.6356 76.9494 27.6384 76.9257 27.6491C76.8638 27.6742 76.7975 27.6871 76.7305 27.6871C76.6636 27.6871 76.5972 27.6742 76.5354 27.6491C76.5158 27.6392 76.4934 27.636 76.4717 27.6401C76.4501 27.6442 76.4304 27.6552 76.416 27.6715C76.2171 27.8861 76.0288 28.0948 75.8222 28.3198V28.3198Z" fill="#EC8032"/>
<path d="M82.8254 30.1486C82.6264 30.2026 82.419 30.2208 82.2133 30.2022C81.1833 30.2022 80.1549 30.2022 79.1249 30.2022C79.0328 30.2078 78.9406 30.1941 78.8545 30.1621C78.7683 30.1301 78.6901 30.0806 78.6252 30.0168C78.5603 29.953 78.5101 29.8764 78.4781 29.7922C78.446 29.708 78.4327 29.6181 78.4392 29.5286C78.453 29.3527 78.4086 29.1738 78.4744 29.0009C78.5151 28.8756 78.5972 28.7669 78.7079 28.6917C78.8186 28.6165 78.9518 28.579 79.0866 28.5851H82.5102C82.6649 28.5784 82.8167 28.6279 82.936 28.724C83.0554 28.8201 83.1338 28.956 83.156 29.1053C83.1392 29.4555 83.2325 29.8505 82.902 30.0919L82.879 30.1054C82.867 30.1076 82.8559 30.1127 82.8465 30.1202C82.8371 30.1278 82.8299 30.1375 82.8254 30.1486V30.1486Z" fill="#EC8032"/>
<path d="M54.5463 31.0712H54.4912C54.4239 31.0712 54.3581 31.0712 54.2907 31.0712H47.139C46.8755 31.0816 46.6115 31.0726 46.3493 31.0443C46.3038 31.0139 46.2512 30.9949 46.1963 30.9892C46.1253 30.9239 46.0415 30.8732 45.9499 30.8401C45.9208 30.8059 45.9101 30.7582 45.8657 30.7373L45.728 30.5286C45.6645 30.3577 45.6334 30.1769 45.6362 29.9951C45.6362 27.5776 45.6362 25.1601 45.6362 22.7426C45.6362 22.6249 45.6362 22.5071 45.6362 22.3909L45.6469 22.3342L45.7617 21.9944L45.7846 21.9646L45.8122 21.9363L45.8321 21.911L45.8474 21.8946L45.8627 21.8707L45.8933 21.8424L45.9392 21.8007L46.2667 21.6084C46.4161 21.5679 46.5708 21.5493 46.7258 21.5533H54.5448L54.7606 21.6024C54.7639 21.6039 54.7676 21.6047 54.7713 21.6047C54.775 21.6047 54.7786 21.6039 54.782 21.6024L55.0253 21.7351L55.0575 21.756L55.0835 21.7753C55.1082 21.8173 55.1449 21.8515 55.1891 21.8737V21.8811L55.209 21.9035L55.3727 22.1688C55.3703 22.1826 55.3711 22.1967 55.3751 22.2101C55.379 22.2235 55.3861 22.2359 55.3957 22.2463V22.2463C55.3926 22.2645 55.3933 22.2831 55.3978 22.3011C55.4022 22.319 55.4104 22.3358 55.4217 22.3506V22.3775V22.8335V30.2589C55.4186 30.2665 55.4186 30.2751 55.4217 30.2827C55.4138 30.2888 55.4079 30.2969 55.4046 30.3062C55.4013 30.3154 55.4009 30.3254 55.4033 30.3349C55.4033 30.3513 55.4033 30.3692 55.3926 30.3856C55.3722 30.4078 55.3603 30.4362 55.359 30.466C55.3339 30.4948 55.318 30.53 55.313 30.5674L55.2901 30.5987L55.2733 30.6196L55.2304 30.6866L55.0223 30.8819C54.8765 30.9721 54.7153 31.0362 54.5463 31.0712ZM50.5182 30.5242H54.3917C54.4556 30.5299 54.52 30.5221 54.5804 30.5012C54.6409 30.4804 54.696 30.4469 54.7418 30.4033C54.7877 30.3596 54.8232 30.3067 54.846 30.2483C54.8688 30.1899 54.8783 30.1274 54.8738 30.0651C54.8738 27.5612 54.8738 25.0568 54.8738 22.5518C54.8781 22.4909 54.869 22.4297 54.8469 22.3725C54.8249 22.3152 54.7906 22.2633 54.7462 22.2201C54.7018 22.1768 54.6485 22.1434 54.5897 22.1219C54.5309 22.1005 54.4681 22.0916 54.4055 22.0958H46.6309C46.5146 22.0929 46.4016 22.134 46.3157 22.2105C46.2628 22.2579 46.2216 22.3163 46.1951 22.3813C46.1686 22.4463 46.1575 22.5163 46.1626 22.5861C46.1626 25.0702 46.1626 27.5577 46.1626 30.0487C46.1626 30.3617 46.334 30.5257 46.6615 30.5257L50.5182 30.5242Z" fill="#59BABA"/>
<path d="M49.2188 28.8594C49.2295 28.6164 49.202 28.2855 49.2326 27.9562C49.2367 27.8954 49.2538 27.8362 49.2828 27.7823C49.3118 27.7284 49.352 27.681 49.4009 27.6432C49.7988 27.3153 50.1937 26.9829 50.5931 26.6565C50.6247 26.6335 50.6498 26.6032 50.6661 26.5683C50.6824 26.5334 50.6894 26.495 50.6865 26.4568C50.6865 26.2258 50.6865 25.9947 50.6865 25.7652C50.6835 25.7336 50.6891 25.7018 50.7029 25.6731C50.7167 25.6443 50.7381 25.6196 50.7649 25.6016C50.7917 25.5835 50.8229 25.5728 50.8554 25.5703C50.8879 25.5679 50.9204 25.574 50.9497 25.5879C51.1778 25.6743 51.4089 25.7682 51.6292 25.8591C51.7685 25.9158 51.9078 25.9784 52.0486 26.0305C52.127 26.0575 52.197 26.1036 52.2519 26.1643C52.3068 26.2251 52.3448 26.2986 52.3623 26.3778C52.4587 26.7385 52.5521 27.1006 52.6393 27.4643C52.6653 27.5731 52.6898 27.6357 52.8322 27.6044C53.1214 27.5418 53.429 27.5433 53.6724 27.3376C53.736 27.2964 53.7815 27.2335 53.7999 27.1612C53.8184 27.0889 53.8083 27.0126 53.7718 26.9471C53.6188 26.649 53.4566 26.351 53.3005 26.0529C53.2877 26.0277 53.267 26.0071 53.2414 25.9943C53.2158 25.9814 53.1866 25.9768 53.1581 25.9813C52.9714 25.9813 52.7832 25.9813 52.5965 25.9813C52.5738 25.9838 52.551 25.9819 52.5291 25.9758C52.5072 25.9696 52.4868 25.9593 52.469 25.9455C52.4513 25.9316 52.4365 25.9145 52.4255 25.8951C52.4146 25.8757 52.4076 25.8543 52.4052 25.8323C52.2521 25.2972 52.0991 24.7622 51.9552 24.2256C51.9124 24.0766 51.9476 24.005 52.1083 23.9558C52.269 23.9066 52.4143 23.8739 52.5674 23.8351C52.647 23.8142 52.7602 23.8127 52.7204 23.6861C52.6806 23.5594 52.5949 23.6235 52.5184 23.6428C52.4419 23.6622 52.3654 23.6756 52.2843 23.698C52.1817 23.7278 52.1312 23.6801 52.1052 23.5937C52.0977 23.5755 52.094 23.556 52.0943 23.5364C52.0946 23.5168 52.0988 23.4975 52.1068 23.4795C52.1148 23.4615 52.1263 23.4452 52.1407 23.4315C52.1551 23.4179 52.1722 23.4071 52.1909 23.3999C52.2996 23.3611 52.4113 23.3328 52.523 23.303L53.0265 23.1674C53.0453 23.1599 53.0657 23.1568 53.0859 23.1582C53.1062 23.1595 53.1259 23.1654 53.1435 23.1753C53.161 23.1853 53.1761 23.199 53.1874 23.2154C53.1986 23.2319 53.2059 23.2506 53.2086 23.2702C53.2347 23.3582 53.2408 23.4461 53.1275 23.4863C53.0862 23.5027 53.0434 23.5132 53.0005 23.5281C52.9874 23.5309 52.9749 23.5362 52.9639 23.5438C52.953 23.5513 52.9436 23.5609 52.9365 23.572C52.9294 23.5831 52.9246 23.5955 52.9224 23.6084C52.9203 23.6214 52.9208 23.6346 52.924 23.6473C52.9362 23.7039 52.9775 23.7218 53.0326 23.7218C53.1367 23.7218 53.2392 23.7218 53.3387 23.7218C53.3697 23.7169 53.4013 23.718 53.4318 23.725C53.4623 23.7321 53.4912 23.7449 53.5166 23.7627C53.542 23.7806 53.5636 23.8031 53.5801 23.8291C53.5966 23.8551 53.6076 23.884 53.6127 23.9141C53.7275 24.3016 53.8453 24.6876 53.9616 25.0751C53.9983 25.1959 54.0351 25.3166 54.0733 25.4373C54.0903 25.4844 54.0972 25.5344 54.0935 25.5842C54.0899 25.634 54.0758 25.6825 54.0521 25.7268C54.0284 25.7711 53.9957 25.8102 53.9559 25.8416C53.9161 25.8731 53.8702 25.8963 53.8208 25.9098L53.7672 25.9202C53.6509 25.9456 53.6219 25.9918 53.6846 26.1095C53.8132 26.351 53.9218 26.6043 54.0427 26.8547C54.0939 26.9511 54.1122 27.061 54.0948 27.1682C54.0775 27.2754 54.0255 27.3745 53.9463 27.4509C53.6907 27.749 53.3433 27.8295 52.9699 27.8578C52.8995 27.8578 52.7924 27.8578 52.7725 27.901C52.7526 27.9442 52.8337 28.0232 52.8781 28.0799C53.1841 28.4748 53.4902 28.8698 53.7963 29.2722C54.0534 29.6061 53.8759 29.9981 53.4459 30.0562C53.3538 30.0756 53.2578 30.0659 53.1719 30.0283C53.0859 29.9908 53.0146 29.9274 52.9684 29.8475C52.4893 29.1217 52.0027 28.4003 51.5175 27.6774C51.3277 27.3913 51.2726 27.3794 50.9987 27.5835C50.7248 27.7877 50.4814 27.9666 50.2182 28.1529C50.1887 28.1712 50.1648 28.1969 50.1492 28.2274C50.1336 28.2578 50.1267 28.2918 50.1294 28.3258C50.1294 28.8221 50.1294 29.3169 50.1294 29.8162C50.1347 29.8591 50.1309 29.9026 50.1181 29.944C50.1053 29.9853 50.0838 30.0237 50.0551 30.0566C50.0263 30.0895 49.9909 30.1162 49.951 30.1352C49.9111 30.1541 49.8677 30.1647 49.8233 30.1665C49.7353 30.1821 49.6451 30.1821 49.557 30.1665C49.5099 30.1654 49.4635 30.1547 49.4209 30.135C49.3782 30.1153 49.3403 30.0872 49.3096 30.0523C49.2788 30.0175 49.256 29.9767 49.2424 29.9327C49.2289 29.8887 49.225 29.8424 49.2311 29.7968C49.2158 29.5122 49.2188 29.229 49.2188 28.8594Z" fill="#59BABA"/>
<path d="M50.8931 25.0886C50.7262 25.3166 50.5594 25.5163 50.4339 25.7369C50.3315 25.901 50.1906 26.0391 50.0227 26.1399C49.8548 26.2407 49.6648 26.3013 49.4682 26.3167C49.179 26.3599 48.8836 26.3733 48.5898 26.3942C48.5247 26.3967 48.4612 26.3744 48.4126 26.3322C48.3641 26.2899 48.3343 26.2309 48.3296 26.1676C48.3082 26.0186 48.3801 25.9232 48.5546 25.883C48.8316 25.8189 49.1086 25.7518 49.3887 25.6952C49.471 25.6767 49.5469 25.6376 49.609 25.5819C49.8352 25.3833 50.0049 25.1312 50.1018 24.8501C50.2053 24.5106 50.4079 24.2076 50.6849 23.9782C50.7394 23.9292 50.8033 23.8913 50.873 23.8668C50.9427 23.8422 51.0168 23.8315 51.0908 23.8353C51.1648 23.839 51.2373 23.8572 51.304 23.8886C51.3707 23.9201 51.4303 23.9642 51.4792 24.0184C51.7043 24.2562 51.8556 24.5513 51.9154 24.8695C51.9858 25.1482 52.0348 25.4299 52.0929 25.7101C52.0929 25.7429 52.1281 25.7816 52.0929 25.8069C52.0577 25.8323 52.0271 25.795 51.995 25.7831C51.7103 25.6713 51.4272 25.5536 51.1379 25.4507C51.0821 25.4394 51.0316 25.4105 50.9943 25.3685C50.9569 25.3265 50.9348 25.2737 50.9313 25.2182C50.9217 25.1742 50.9089 25.1308 50.8931 25.0886V25.0886Z" fill="#59BABA"/>
<path d="M50.792 23.5743C50.639 23.7233 50.463 23.8515 50.3329 24.0125C50.2111 24.1461 50.1249 24.3068 50.0819 24.4805C50.0651 24.5639 50.0268 24.5833 49.9457 24.5788C49.5775 24.5681 49.2271 24.4222 48.9647 24.1704C48.8177 24.0315 48.7119 23.8564 48.6586 23.6637C48.6403 23.5981 48.6433 23.5549 48.7336 23.5564H50.7538C50.7538 23.5564 50.7676 23.5623 50.792 23.5743Z" fill="#59BABA"/>
<path d="M49.606 23.3925C49.254 23.3925 48.9005 23.3925 48.5485 23.3925C48.5085 23.3924 48.4686 23.3895 48.4291 23.3835C48.4157 23.3827 48.4027 23.3791 48.3909 23.373C48.379 23.3669 48.3687 23.3584 48.3604 23.3482C48.3522 23.3379 48.3463 23.326 48.3431 23.3134C48.3399 23.3007 48.3395 23.2875 48.3419 23.2747C48.3419 23.2076 48.3878 23.1868 48.449 23.1868C48.6587 23.1868 48.8683 23.1868 49.078 23.1868C49.1164 23.1922 49.1554 23.1831 49.1872 23.1616C49.2191 23.14 49.2413 23.1074 49.2494 23.0705C49.2811 22.9719 49.333 22.8805 49.4019 22.8019C49.4709 22.7234 49.5555 22.6592 49.6506 22.6134C49.7457 22.5676 49.8494 22.541 49.9554 22.5353C50.0614 22.5296 50.1674 22.5448 50.2672 22.5802C50.4181 22.6447 50.548 22.7483 50.6427 22.8797C50.7374 23.011 50.7933 23.1652 50.8043 23.3254C50.8043 23.4148 50.7355 23.388 50.6895 23.388H49.606V23.3925Z" fill="#59BABA"/>
<path d="M48.3633 26.4657C48.3633 26.4851 48.3312 26.5164 48.3021 26.5492L46.865 28.1261C46.7931 28.2036 46.7242 28.2841 46.6508 28.3586C46.6003 28.4093 46.536 28.4361 46.4733 28.3809C46.4105 28.3258 46.4212 28.2572 46.4733 28.1976L47.5201 27.0485L48.1322 26.3867C48.1781 26.3375 48.2287 26.3048 48.296 26.3331C48.3266 26.348 48.3511 26.3852 48.3633 26.4657Z" fill="#59BABA"/>
</svg>
